<ttFont>
          <CharString index="0">
            -35 callsubr
            46 48 18 32 40 vhcurveto
            -33 callsubr
            185 vlineto
            104 -54 54 -103 -59 -65 -23 -38 -48 vhcurveto
            45 -75 84 74 rlineto
            -96 callsubr
            -126 vlineto
            -19 -26 -35 -12 -32 hhcurveto
            -48 -29 27 44 hvcurveto
            return
          </CharString>
          <CharString index="1">
            hstem
            40 85 170 84 vstem
            -107 callsubr
            return
          </CharString>
          <CharString index="2">
            rmoveto
            -100 callsubr
            -181 hmoveto
            -101 callsubr
            endchar
          </CharString>
          <CharString index="3">
            -17 callsubr
            55 293 -21 callsubr
            -22 callsubr
            -68 callsubr
            101 4 -94 callsubr
            return
          </CharString>
          <CharString index="4">
            hstem
            50 92 216 92 -46 callsubr
            124 79 95 150 143 -72 81 -126 2 callsubr
            vhcurveto
            211 -164 -92 callsubr
            return
          </CharString>
          <CharString index="5">
            hstem
            50 45 callsubr
            208 rmoveto
            -137 81 -86 130 39 callsubr
            vhcurveto
            -70 callsubr
            3 23 2 -7 callsubr
            -121 -86 -102 -144 vhcurveto
            94 68 rmoveto
            5 53 12 38 16 17 -48 callsubr
            return
          </CharString>
          <CharString index="6">
            17 -26 18 -18 26 -17 23 16 16 17 19 28 -19 27 -16 17 -23 17 -26 -17 -18 -19 -17 -25 rrcurveto
            return
          </CharString>
          <CharString index="7">
            18 -28 16 -17 24 -16 25 17 19 18 17 26 -17 25 -19 19 -25 17 -24 -16 -16 -18 -18 -27 rrcurveto
            return
          </CharString>
          <CharString index="8">
            -20 hstem
            84 94 284 85 vstem
            84 263 rmoveto
            -187 72 -91 148 163 80 95 195 vhcurveto
            133 vlineto
            14 -5 callsubr
            -105 hlineto
            13 36 callsubr
            -139 vlineto
            -147 -44 -61 -107 -100 -40 68 172 vhcurveto
            107 vlineto
            13 198 rlineto
            -121 -61 callsubr
            return
          </CharString>
          <CharString index="9">
            -20 hstemhm
            94 88 hintmask 01111100
            -85 callsubr
            hintmask 10111100
            -8 callsubr
            hintmask 01111100
            1 callsubr
            hintmask 10111100
            -79 callsubr
            -96 hlineto
            return
          </CharString>
          <CharString index="10">
            15 -23 15 -17 21 -16 -9 -47 -10 -31 -23 -50 34 -24 rcurveline
            45 65 40 86 13 57 -17 26 -26 25 -28 19 -29 -20 -21 -21 -20 -29 rrcurveto
            return
          </CharString>
          <CharString index="11">
            1 7 15 1 16 hhcurveto
            59 19 -33 -101 hvcurveto
            -209 -38 -46 -27 -86 vvcurveto
            85 8 rmoveto
            11 2 13 5 19 vhcurveto
            40 17 63 17 60 9 rrcurveto
            return
          </CharString>
          <CharString index="12">
            -20 hstem
            75 84 178 90 vstem
            75 123 rmoveto
            -90 37 -48 68 52 59 19 34 52 vhcurveto
            -50 vlineto
            99 10 -15 103 rlineto
            341 vlineto
            -96 -5 12 -346 rlineto
            -22 -43 -52 -15 -37 -19 callsubr
            215 -98 -5 rlineto
            return
          </CharString>
          <CharString index="13">
            -41 callsubr
            33 39 8 36 hhcurveto
            133 72 -87 -161 -95 -28 -103 -35 -34 hvcurveto
            -14 -33 -42 -9 -36 -31 callsubr
            return
          </CharString>
          <CharString index="14">
            rmoveto
            -60 -55 rlineto
            53 -96 -14 7 -30 hhcurveto
            -21 -19 -16 -24 -33 -59 22 -17 rcurveline
            60 55 rlineto
            -58 104 6 -2 30 hhcurveto
            23 20 15 22 32 60 rrcurveto
            endchar
          </CharString>
          <CharString index="15">
            -81 callsubr
            83 38 -56 -125 -68 -12 -58 -21 -30 hvcurveto
            -8 -27 -16 -2 -21 hhcurveto
            return
          </CharString>
          <CharString index="16">
            20 -30 21 -21 29 -19 29 19 21 21 20 30 -20 30 -21 20 -29 20 -29 -20 -21 -21 -20 -29 rrcurveto
            return
          </CharString>
          <CharString index="17">
            -20 hstemhm
            hintmask 10110000
            -53 callsubr
            hintmask 01110000
            -67 callsubr
            hintmask 10110000
            -42 callsubr
            return
          </CharString>
          <CharString index="18">
            rmoveto
            115 76 115 -76 23 32 -138 130 -138 -130 rlineto
            endchar
          </CharString>
          <CharString index="19">
            rmoveto
            -101 callsubr
            181 hmoveto
            -100 callsubr
            endchar
          </CharString>
          <CharString index="20">
            -91 callsubr
            endchar
          </CharString>
          <CharString index="21">
            rmoveto
            175 102 -59 65 -139 -135 rlineto
            endchar
          </CharString>
          <CharString index="22">
            178 407 rmoveto
            9 128 rlineto
            -72 callsubr
            -204 rlineto
            return
          </CharString>
          <CharString index="23">
            -20 hstem
            65 89 vstem
            58 hmoveto
            -52 callsubr
            -18 callsubr
            return
          </CharString>
          <CharString index="24">
            -20 hstem
            99 84 vstem
            85 hmoveto
            -82 callsubr
            -210 vlineto
            return
          </CharString>
          <CharString index="25">
            10 callsubr
            210 -63 callsubr
            return
          </CharString>
          <CharString index="26">
            rmoveto
            -82 -37 56 125 65 13 63 20 28 hvcurveto
            7 27 17 3 18 hhcurveto
            return
          </CharString>
          <CharString index="27">
            -20 hstem
            35 54 rmoveto
            -97 callsubr
            return
          </CharString>
          <CharString index="28">
            24 callsubr
            -132 hlineto
            -9 127 rlineto
            82 -34 callsubr
            return
          </CharString>
          <CharString index="29">
            16 callsubr
            214 -20 -106 callsubr
            return
          </CharString>
          <CharString index="30">
            16 callsubr
            192 -20 -106 callsubr
            return
          </CharString>
          <CharString index="31">
            rmoveto
            -138 135 -59 -64 174 -103 rlineto
            endchar
          </CharString>
          <CharString index="32">
            14 -9 callsubr
            215 -20 -102 callsubr
            return
          </CharString>
          <CharString index="33">
            -24 callsubr
            215 -98 callsubr
            return
          </CharString>
          <CharString index="34">
            11 callsubr
            200 -20 -104 callsubr
            return
          </CharString>
          <CharString index="35">
            -44 callsubr
            -339 -61 callsubr
            -210 vlineto
            -14 return
          </CharString>
          <CharString index="36">
            hstem
            53 72 144 76 vstem
            40 9 rmoveto
            -15 37 47 -9 40 hhcurveto
            102 79 63 81 53 -33 36 -95 50 hvcurveto
            -74 38 -18 21 46 vvcurveto
            13 22 25 7 25 hhcurveto
            33 33 -11 -26 44 hvcurveto
            24 78 rlineto
            13 -30 -39 7 -35 hhcurveto
            -100 -74 -56 -74 -53 29 -34 75 -39 hvcurveto
            100 -52 12 -12 -41 vvcurveto
            -10 -1 -11 -1 -3 vhcurveto
            -14 -20 -29 -9 -25 hhcurveto
            -39 -37 15 35 -50 hvcurveto
            return
          </CharString>
          <CharString index="37">
            -36 callsubr
            -72 -41 65 113 hvcurveto
            270 9 rlineto
            return
          </CharString>
          <CharString index="38">
            -133 -21 278 -80 callsubr
            return
          </CharString>
          <CharString index="39">
            193 -105 116 -174 -32 callsubr
            vhcurveto
            return
          </CharString>
          <CharString index="40">
            30 -151 rlineto
            117 hlineto
            -220 609 -79 -6 -19 -69 rlineto
            return
          </CharString>
          <CharString index="41">
            47 17 callsubr
            215 -20 -103 callsubr
            return
          </CharString>
          <CharString index="42">
            47 17 callsubr
            193 -20 -103 callsubr
            return
          </CharString>
          <CharString index="43">
            hstem
            61 83 222 81 vstem
            55 17 rmoveto
            -21 53 57 -11 53 hhcurveto
            133 96 77 107 hvcurveto
            213 -303 -78 213 vvcurveto
            23 37 34 11 33 hhcurveto
            43 41 -16 -40 60 hvcurveto
            29 94 rlineto
            18 -40 -46 10 -47 hhcurveto
            -136 -91 -67 -100 hvcurveto
            -209 305 54 -172 vvcurveto
            -10 -1 -11 -2 -10 vhcurveto
            -24 -23 -42 -16 -39 hhcurveto
            -52 -41 16 50 -77 hvcurveto
            return
          </CharString>
          <CharString index="44">
            6 callsubr
            -60 callsubr
            return
          </CharString>
          <CharString index="45">
            51 callsubr
            235 -99 callsubr
            return
          </CharString>
          <CharString index="46">
            hlineto
            14 -197 rlineto
            return
          </CharString>
          <CharString index="47">
            rlineto
            -112 -61 callsubr
            return
          </CharString>
          <CharString index="48">
            -15 23 -15 17 -21 16 9 47 10 31 23 50 -34 24 rcurveline
            -45 -65 -40 -86 -13 -57 17 -26 26 -25 28 -19 29 20 21 21 20 29 rrcurveto
            return
          </CharString>
          <CharString index="49">
            rmoveto
            138 -130 138 130 -23 32 -115 -77 -115 77 rlineto
            return
          </CharString>
          <CharString index="50">
            15 -111 rmoveto
            28 -89 98 10 60 68 71 181 rlinecurve
            149 380 59 callsubr
            -33 -95 -29 -77 -25 -64 rlinecurve
            -90 248 return
          </CharString>
          <CharString index="51">
            62 16 -9 -34 -23 -15 -10 -33 -16 -28 5 6 -16 hvcurveto
            -31 -56 rlineto
            -9 23 32 -5 28 hhcurveto
            74 41 33 59 44 -25 23 -57 6 hvcurveto
            return
          </CharString>
          <CharString index="52">
            75 25 41 46 44 24 -40 -72 -75 -25 -40 -47 -43 -24 40 71 vhcurveto
            return
          </CharString>
          <CharString index="53">
            -98 54 -64 82 89 54 64 104 99 -54 64 -83 -88 -54 -64 -105 vhcurveto
            return
          </CharString>
          <CharString index="54">
            10 -1 rmoveto
            101 hlineto
            36 152 rlineto
            247 hlineto
            return
          </CharString>
          <CharString index="55">
            102 -40 callsubr
            58 69 callsubr
            -103 return
          </CharString>
          <CharString index="56">
            rmoveto
            -4 31 30 -2 25 hhcurveto
            96 76 50 64 47 -34 35 -51 5 hvcurveto
            50 20 26 30 39 vvcurveto
            50 -44 27 -79 -38 -52 -8 -11 -34 vhcurveto
            22 -62 67 24 rlineto
            67 18 -8 -29 -35 -31 -13 -102 -8 hvcurveto
            2 -42 rlineto
            103 35 -13 -36 -50 -55 -23 -124 hvcurveto
            return
          </CharString>
          <CharString index="57">
            rmoveto
            189 -96 96 -189 -189 -96 -96 -189 -189 96 -96 189 189 96 96 189 vhcurveto
            -64 hmoveto
            -165 -6 -64 -66 -151 hhcurveto
            -152 -63 67 164 -6 hvcurveto
            164 6 63 67 152 hhcurveto
            151 64 -66 -165 6 hvcurveto
            return
          </CharString>
          <CharString index="58">
            50 36 36 48 48 -37 35 -49 hvcurveto
            -132 vmoveto
            -25 -18 20 28 28 18 19 25 25 17 -19 -28 -28 -18 -20 -24 hvcurveto
            endchar
          </CharString>
          <CharString index="59">
            rrcurveto
            6 16 22 3 25 hhcurveto
            63 22 -27 -82 1 hvcurveto
            return
          </CharString>
          <CharString index="60">
            -23 callsubr
            599 -90 callsubr
            return
          </CharString>
          <CharString index="61">
            vstem
            50 210 rmoveto
            -142 72 -83 125 return
          </CharString>
          <CharString index="62">
            203 hmoveto
            10 callsubr
            65 vlineto
            189 343 rlineto
            -118 hlineto
            -24 -100 -86 -175 -91 184 return
          </CharString>
          <CharString index="63">
            111 hlineto
            112 -12 9 82 rlineto
            return
          </CharString>
          <CharString index="64">
            -20 hstem
            -57 callsubr
            -12 94 21 callsubr
            return
          </CharString>
          <CharString index="65">
            53 -27 rmoveto
            95 -286 rlineto
            -196 hlineto
            return
          </CharString>
          <CharString index="66">
            rmoveto
            95 28 105 35 34 vhcurveto
            15 return
          </CharString>
          <CharString index="67">
            hlineto
            -11 -5 callsubr
            return
          </CharString>
          <CharString index="68">
            -20 hstem
            210 98 vstem
            -45 callsubr
            32 callsubr
            return
          </CharString>
          <CharString index="69">
            379 75 callsubr
            181 428 rmoveto
            -59 callsubr
            return
          </CharString>
          <CharString index="70">
            -32 87 rlineto
            -44 -53 -56 -24 -51 hhcurveto
            -120 -75 98 155 185 57 62 171 hvcurveto
            122 -66 32 105 rlineto
            20 -54 -52 10 -51 hhcurveto
            -197 -129 -130 -198 hvcurveto
            endchar
          </CharString>
          <CharString index="71">
            -27 74 rlineto
            -33 -39 -47 -18 -45 hhcurveto
            return
          </CharString>
          <CharString index="72">
            40 110 rmoveto
            -75 50 -50 76 return
          </CharString>
          <CharString index="73">
            183 vlineto
            8 75 -95 -10 rlineto
            return
          </CharString>
          <CharString index="74">
            4 -50 93 14 -18 113 rlineto
            return
          </CharString>
          <CharString index="75">
            -183 -116 -126 -201 return
          </CharString>
          <CharString index="76">
            hhcurveto
            -128 -74 90 156 hvcurveto
            return
          </CharString>
          <CharString index="77">
            -27 74 rlineto
            -33 -41 -44 -18 -36 hhcurveto
            -68 -40 64 109 116 29 51 70 8 hvcurveto
            124 -49 27 86 rlineto
            15 -30 -43 8 -44 hhcurveto
            -134 -91 -99 -146 hvcurveto
            endchar
          </CharString>
          <CharString index="78">
            rmoveto
            -129 174 129 174 -35 30 -190 -188 -3 -29 193 -191 rlineto
            return
          </CharString>
          <CharString index="79">
            rmoveto
            129 -174 -129 -174 35 -30 190 188 3 29 -193 191 rlineto
            return
          </CharString>
          <CharString index="80">
            rmoveto
            354 hlineto
            4 69 rlineto
            -354 hlineto
            return
          </CharString>
          <CharString index="81">
            vhcurveto
            -40 -76 rlineto
            -56 callsubr
            hintmask 10111100
            22 44 return
          </CharString>
          <CharString index="82">
            54 callsubr
            -49 callsubr
          </CharString>
          <CharString index="83">
            25 0 70 -55 -21 285 65 191 70 return
          </CharString>
          <CharString index="84">
            98 20 -21 22 -21 151 70 return
          </CharString>
          <CharString index="85">
            183 117 128 198 return
          </CharString>
          <CharString index="86">
            rmoveto
            -191 105 -117 173 return
          </CharString>
          <CharString index="87">
            hmoveto
            -97 callsubr
            endchar
          </CharString>
          <CharString index="88">
            hhcurveto
            -38 -14 19 49 hvcurveto
            105 vlineto
            14 return
          </CharString>
          <CharString index="89">
            -6 callsubr
            -140 vlineto
            return
          </CharString>
          <CharString index="90">
            hstem
            55 101 376 101 vstem
            return
          </CharString>
          <CharString index="91">
            59 -50 37 -82 -47 -48 -10 -18 -36 vhcurveto
            20 -52 rlineto
            15 32 31 8 31 hhcurveto
            45 27 -19 -31 -20 -8 -19 -16 -21 hvcurveto
            -25 -33 -51 -46 -95 -77 rrcurveto
            return
          </CharString>
          <CharString index="92">
            10 139 rlineto
            5 26 28 3 28 hhcurveto
            153 67 -75 -172 -86 -21 -89 -32 -46 hvcurveto
            -23 -49 -55 -12 -54 hhcurveto
            -32 -32 4 9 -28 hvcurveto
            endchar
          </CharString>
          <CharString index="93">
            -2 -38 rlineto
            232 hlineto
            -3 58 -76 -7 rlineto
            305 -16 vlineto
            -141 -61 rlineto
            return
          </CharString>
          <CharString index="94">
            33 callsubr
            -54 -116 -73 -13 -57 -24 -29 hvcurveto
            -7 -29 -27 -3 -28 hhcurveto
            -29 -22 3 8 -16 hvcurveto
            endchar
          </CharString>
          <CharString index="95">
            -35 rmoveto
            278 656 -67 20 -278 -656 rlineto
            return
          </CharString>
          <CharString index="96">
            hintmask 01011000
            80 -6 rmoveto
            hintmask 00111000
            109 6 rlineto
            95 hlineto
            hintmask 01011000
            1 callsubr
            hintmask 10011000
            24 callsubr
            -107 hlineto
            -9 127 rlineto
            return
          </CharString>
          <CharString index="97">
            70 callsubr
            669 -84 callsubr
            return
          </CharString>
          <CharString index="98">
            -15 61 182 52 113 61 return
          </CharString>
          <CharString index="99">
            112 6 rlineto
            117 hlineto
            return
          </CharString>
          <CharString index="100">
            24 18 vvcurveto
            99 -58 57 -102 return
          </CharString>
          <CharString index="101">
            -10 15 -103 rlineto
            return
          </CharString>
          <CharString index="102">
            197 rlineto
            return
          </CharString>
          <CharString index="103">
            36 -21 408 -20 hstem
            258 45 -29 callsubr
            return
          </CharString>
          <CharString index="104">
            31 callsubr
            -14 callsubr
            return
          </CharString>
          <CharString index="105">
            36 -21 408 -20 hstem
            35 393 -28 callsubr
            return
          </CharString>
          <CharString index="106">
            -9 48 66 -6 45 hhcurveto
            215 137 131 204 204 -101 96 -215 -62 -67 -7 -14 -70 hvcurveto
            87 callsubr
            return
          </CharString>
          <CharString index="107">
            107 -40 callsubr
            return
          </CharString>
          <CharString index="108">
            109 -6 10 88 rlineto
            return
          </CharString>
          <CharString index="109">
            -123 -79 -95 -149 return
          </CharString>
          <CharString index="110">
            23 callsubr
            hintmask 10111100
            -14 -215 76 callsubr
            return
          </CharString>
          <CharString index="111">
            -21 rmoveto
            -11 -198 105 10 -10 198 rlineto
            -3 16 20 -1 16 hhcurveto
            138 90 104 157 128 -59 80 -93 return
          </CharString>
          <CharString index="112">
            rmoveto
            20 -30 19 -19 28 -18 27 18 19 19 21 30 -21 29 -20 19 -26 19 -27 -18 -19 -20 -21 -29 rrcurveto
            endchar
          </CharString>
          <CharString index="113">
            vlineto
            14 198 return
          </CharString>
          <CharString index="114">
            22 39 51 15 37 hhcurveto
            36 14 -19 -49 hvcurveto
            -105 vlineto
            hintmask 10111100
            -14 -217 26 callsubr
            return
          </CharString>
          <CharString index="115">
            -54 callsubr
            242 -404 rmoveto
            290 560 rlineto
            return
          </CharString>
          <CharString index="116">
            15 callsubr
            180 vlineto
            121 9 3 53 rlineto
            -124 35 hlineto
            return
          </CharString>
          <CharString index="117">
            112 27 callsubr
            return
          </CharString>
          <CharString index="118">
            235 -15 46 callsubr
            return
          </CharString>
          <CharString index="119">
            rmoveto
            -91 callsubr
            return
          </CharString>
          <CharString index="120">
            -15 52 -42 -21 242 52 -4 52 179 52 11 -20 hstemhm
            67 70 139 70 156 70 139 70 return
          </CharString>
          <CharString index="121">
            76 3 -14 221 rlineto
            186 6 callsubr
            rlineto
            -100 -61 callsubr
            -230 vlineto
            -288 362 return
          </CharString>
          <CharString index="122">
            89 -173 hlineto
            56 callsubr
            0 callsubr
            return
          </CharString>
          <CharString index="123">
            1 -15 62 348 60 return
          </CharString>
          <CharString index="124">
            -15 61 347 61 return
          </CharString>
          <CharString index="125">
            -21 605 -20 return
          </CharString>
          <CharString index="126">
            16 -25 18 -18 25 -17 25 17 18 17 17 26 -19 26 -17 17 -24 16 -23 -16 -18 -17 -18 -26 rrcurveto
            return
          </CharString>
          <CharString index="127">
            rmoveto
            281 hlineto
            6 71 -94 -13 rlineto
            -94 hlineto
            68 54 40 36 22 27 rrcurveto
            23 29 12 28 28 vvcurveto
            return
          </CharString>
          <CharString index="128">
            -107 -7 169 -429 -21 -43 -16 -27 -30 -42 rlinecurve
            return
          </CharString>
          <CharString index="129">
            48 callsubr
            287 69 callsubr
            return
          </CharString>
          <CharString index="130">
            22 42 52 15 38 hhcurveto
            38 14 -19 -49 hvcurveto
            -107 vlineto
            return
          </CharString>
          <CharString index="131">
            -109 -12 rlineto
            return
          </CharString>
          <CharString index="132">
            66 22 callsubr
            -108 -10 15 -103 rlineto
            -369 vlineto
            return
          </CharString>
          <CharString index="133">
            rlineto
            hintmask 01111100
            98 5 rlineto
            316 vlineto
            return
          </CharString>
          <CharString index="134">
            hlineto
            -14 -5 callsubr
            return
          </CharString>
          <CharString index="135">
            68 8 rlineto
            366 hlineto
            -12 110 -129 -40 rlineto
            -186 hlineto
            327 497 -11 47 return
          </CharString>
          <CharString index="136">
            -12 callsubr
            218 116 rmoveto
            141 -15 hlineto
            return
          </CharString>
          <CharString index="137">
            -74 -9 rlineto
            -352 hlineto
            12 -105 122 36 rlineto
            187 hlineto
            -329 -498 rlineto
            endchar
          </CharString>
          <CharString index="138">
            rmoveto
            81 20 rlineto
            -124 vlineto
            -8 -111 -75 -6 return
          </CharString>
          <CharString index="139">
            -24 98 -132 -9 202 -361 rlineto
            -44 vlineto
            return
          </CharString>
          <CharString index="140">
            rmoveto
            304 vlineto
            15 32 37 9 30 hhcurveto
            61 28 return
          </CharString>
          <CharString index="141">
            rmoveto
            9 -65 349 155 rlineto
            57 vlineto
            -349 155 -9 -65 282 -119 rlineto
            return
          </CharString>
          <CharString index="142">
            rmoveto
            282 119 -9 65 -349 -155 rlineto
            -57 vlineto
            349 -155 9 65 rlineto
            return
          </CharString>
          <CharString index="143">
            -198 rlineto
            return
          </CharString>
          <CharString index="144">
            56 callsubr
            10 callsubr
            210 vlineto
            10 148 rlineto
            3 20 return
          </CharString>
          <CharString index="145">
            -50 -46 35 -69 hhcurveto
            -46 -40 -20 -42 -38 hvcurveto
            32 -49 rlineto
            29 29 28 13 32 hhcurveto
            return
          </CharString>
          <CharString index="146">
            55 54 14 24 43 return
          </CharString>
          <CharString index="147">
            21 18 callsubr
            return
          </CharString>
          <CharString index="148">
            -102 -22 rlineto
            -123 hlineto
            225 346 -7 34 -70 -11 -249 10 7 -93 return
          </CharString>
          <CharString index="149">
            -162 29 rlineto
            -94 vlineto
            162 29 rlineto
            return
          </CharString>
          <CharString index="150">
            51 vlineto
            -97 -6 callsubr
            -141 vlineto
            return
          </CharString>
          <CharString index="151">
            162 -29 rlineto
            94 vlineto
            -162 -29 rlineto
            return
          </CharString>
          <CharString index="152">
            92 184 91 vstem
            50 return
          </CharString>
          <CharString index="153">
            66 503 66 return
          </CharString>
          <CharString index="154">
            100 39 vlineto
            6 66 -45 -8 rlineto
            198 -54 vlineto
            -161 -212 rlineto
            return
          </CharString>
          <CharString index="155">
            hmoveto
            0 callsubr
            return
          </CharString>
          <CharString index="156">
            -171 40 callsubr
            return
          </CharString>
          <CharString index="157">
            -177 -21 883 -20 hstem
            return
          </CharString>
          <CharString index="158">
            178 -15 75 545 -20 return
          </CharString>
          <CharString index="159">
            16 -21 26 -21 385 69 return
          </CharString>
          <CharString index="160">
            rmoveto
            43 3 46 258 -104 -8 rlineto
            return
          </CharString>
          <CharString index="161">
            rmoveto
            -49 -37 -35 -48 -48 36 -36 50 return
          </CharString>
          <CharString index="162">
            9 128 rlineto
            return
          </CharString>
          <CharString index="163">
            -14 36 callsubr
            return
          </CharString>
          <CharString index="164">
            hlineto
            hintmask 10010000
            26 127 rlineto
            -67 hlineto
            hintmask 10100000
            -26 -127 rlineto
            return
          </CharString>
          <CharString index="165">
            16 -21 610 -20 26 -20 hstemhm
            hintmask 11000000
            233 -5 rmoveto
            return
          </CharString>
          <CharString index="166">
            rlineto
            -104 hlineto
            -11 -99 return
          </CharString>
          <CharString index="167">
            55 callsubr
            -44 callsubr
            return
          </CharString>
          <CharString index="168">
            143 69 -143 142 -69 -142 -142 hlineto
            return
          </CharString>
          <CharString index="169">
            vlineto
            56 callsubr
            10 callsubr
            return
          </CharString>
          <CharString index="170">
            -20 hstem
            150 82 vstem
            150 -145 rmoveto
            82 return
          </CharString>
          <CharString index="171">
            -16 24 -19 23 -35 23 -35 -23 -19 -23 -16 -24 return
          </CharString>
          <CharString index="172">
            -60 24 -290 -560 rlineto
            -112 381 rmoveto
            return
          </CharString>
          <CharString index="173">
            hhcurveto
            -127 -79 -89 -142 hvcurveto
            -18 vlineto
            -92 -29 return
          </CharString>
          <CharString index="174">
            16 -24 19 -23 35 -23 35 23 19 23 16 24 return
          </CharString>
          <CharString index="175">
            -27 -179 -21 639 -20 return
          </CharString>
          <CharString index="176">
            vlineto
            11 196 return
          </CharString>
          <CharString index="177">
            -224 21 -21 return
          </CharString>
          <CharString index="178">
            -53 -3 73 -55 -21 27 18 callsubr
            hstemhm
            return
          </CharString>
          <CharString index="179">
            40 59 -35 64 hhcurveto
            47 42 21 41 35 hvcurveto
            return
          </CharString>
          <CharString index="180">
            37 -6 rmoveto
            68 11 281 -10 -9 92 rlineto
            return
          </CharString>
          <CharString index="181">
            -198 -21 204 return
          </CharString>
          <CharString index="182">
            -21 278 -20 hstem
            return
          </CharString>
          <CharString index="183">
            26 callsubr
            90 return
          </CharString>
          <CharString index="184">
            16 -21 444 -20 27 -20 hstemhm
            hintmask 11000000
            return
          </CharString>
          <CharString index="185">
            -12 91 rlineto
            hintmask 11000000
            -106 -7 rlineto
            endchar
          </CharString>
          <CharString index="186">
            -27 21 -21 451 -20 182 -20 hstem
            return
          </CharString>
          <CharString index="187">
            104 23 rlineto
            93 hlineto
            -225 -346 rlineto
            return
          </CharString>
          <CharString index="188">
            69 142 -20 hstem
            223 69 vstem
            81 return
          </CharString>
          <CharString index="189">
            50 -104 135 7 rlineto
            10 vlineto
            -85 93 return
          </CharString>
          <CharString index="190">
            hvcurveto
            -304 vlineto
            -15 -33 -36 -9 -30 hhcurveto
            return
          </CharString>
          <CharString index="191">
            69 callsubr
            -108 -6 callsubr
            return
          </CharString>
          <CharString index="192">
            rmoveto
            87 116 rlineto
            -116 vlineto
            endchar
          </CharString>
          <CharString index="193">
            -52 -59 -19 -34 -52 vhcurveto
            return
          </CharString>
          <CharString index="194">
            18 -132 rlineto
            return
          </CharString>
          <CharString index="195">
            604 rlineto
            -121 hlineto
            -12 -125 return
          </CharString>
          <CharString index="196">
            -189 -209 -21 925 -20 hstem
            return
          </CharString>
          <CharString index="197">
            395 -14 -21 36 153 -53 53 return
          </CharString>
          <CharString index="198">
            -211 21 -21 680 -20 hstem
            80 return
          </CharString>
          <CharString index="199">
            21 -21 381 58 249 -20 hstem
            return
          </CharString>
          <CharString index="200">
            -144 -19 -21 700 -20 hstem
            return
          </CharString>
          <CharString index="201">
            -23 523 -21 167 -20 hstem
            return
          </CharString>
          <CharString index="202">
            -42 0 65 -50 -21 380 65 return
          </CharString>
          <CharString index="203">
            43 0 70 -57 -21 544 69 return
          </CharString>
          <CharString index="204">
            -21 140 -20 hstem
            return
          </CharString>
          <CharString index="205">
            -21 647 -20 return
          </CharString>
        <CharString name=".notdef">
          -203 endchar
        </CharString>
        <CharString name="A">
          -23 callsubr
          388 -90 callsubr
          endchar
        </CharString>
        <CharString name="AE">
          275 -3 73 -55 -21 26 -21 22 -21 151 70 58 65 191 70 hstemhm
          344 88 hintmask 00101111
          428 344 rmoveto
          63 vlineto
          60 callsubr
          -341 hlineto
          -32 -71 -306 -535 rlineto
          100 hlineto
          63 152 rlineto
          188 hlineto
          hintmask 01001111
          -11 -157 rlineto
          hintmask 00011111
          -8 callsubr
          hintmask 01001111
          1 callsubr
          hintmask 10001111
          -79 callsubr
          -331 -123 rmoveto
          151 286 rlineto
          -286 vlineto
          endchar
        </CharString>
        <CharString name="Aacute">
          -47 callsubr
          84 432 -86 callsubr
        </CharString>
        <CharString name="Acircumflex">
          -23 callsubr
          594 -90 callsubr
          -5 432 -89 callsubr
        </CharString>
        <CharString name="Adieresis">
          -23 callsubr
          577 -90 callsubr
          137 516 -105 callsubr
        </CharString>
        <CharString name="Agrave">
          -47 callsubr
          159 464 -76 callsubr
        </CharString>
        <CharString name="Aring">
          -23 callsubr
          432 35 95 37 hstemhm
          199 43 85 44 hintmask 10111110
          -53 callsubr
          hintmask 01111110
          -67 callsubr
          hintmask 10111110
          -42 callsubr
          110 599 -25 callsubr
        </CharString>
        <CharString name="Atilde">
          -23 callsubr
          453 -20 144 -20 hstemhm
          hintmask 10111000
          -53 callsubr
          hintmask 01111000
          -67 callsubr
          hintmask 10111000
          -42 callsubr
          234 572 -93 callsubr
        </CharString>
        <CharString name="B">
          94 -15 61 232 58 224 60 hstemhm
          98 88 177 92 -50 50 -50 92 hintmask 11110010
          84 hmoveto
          -9 41 64 -6 51 hhcurveto
          157 100 72 112 80 -37 49 -77 24 hvcurveto
          hintmask 11110100
          47 30 25 49 61 vvcurveto
          106 -63 52 -128 -44 -60 -7 -13 -71 vhcurveto
          -9 -1 87 callsubr
          -269 vlineto
          95 -146 rmoveto
          -2 14 -9 131 rlineto
          81 78 vlineto
          100 45 -36 -80 -38 -13 -37 -22 -25 hvcurveto
          -11 -37 -35 -5 -31 hhcurveto
          -26 -24 2 4 -24 hvcurveto
          -11 355 rmoveto
          10 148 rlineto
          3 19 19 2 20 hhcurveto
          hintmask 11111000
          74 39 -38 -70 -76 -44 -39 -91 -1 hvcurveto
          -46 hlineto
          endchar
        </CharString>
        <CharString name="C">
          140 -15 66 500 69 hstem
          55 101 vstem
          55 292 rmoveto
          -191 110 -116 181 74 62 15 32 61 vhcurveto
          -37 callsubr
        </CharString>
        <CharString name="Ccedilla">
          140 -224 59 76 140 -66 66 500 69 hstemhm
          55 101 187 59 hintmask 11011100
          55 292 rmoveto
          -177 93 -112 157 -16 -26 callsubr
          rlineto
          4 hlineto
          74 62 15 32 61 hvcurveto
          -37 callsubr
        </CharString>
        <CharString name="D">
          197 -15 46 callsubr
          hstem
          98 84 312 101 vstem
          84 hmoveto
          -1 callsubr
          -269 vlineto
          93 -134 rmoveto
          -9 133 rlineto
          210 vlineto
          -15 callsubr
        </CharString>
        <CharString name="Delta">
          77 0 70 551 -20 hstem
          520 hmoveto
          -216 621 -82 -3 -212 -618 rlineto
          103 70 rmoveto
          143 453 147 -453 rlineto
          endchar
        </CharString>
        <CharString name="E">
          -24 callsubr
          hstemhm
          94 88 hintmask 01111000
          -85 callsubr
          hintmask 10111000
          -8 callsubr
          hintmask 01111000
          1 callsubr
          hintmask 10111000
          -79 callsubr
          -96 hlineto
          endchar
        </CharString>
        <CharString name="Eacute">
          -74 callsubr
          25 309 -86 callsubr
        </CharString>
        <CharString name="Ecircumflex">
          -24 callsubr
          210 -98 callsubr
          -44 309 -89 callsubr
        </CharString>
        <CharString name="Edieresis">
          -24 callsubr
          193 -98 callsubr
          100 393 -105 callsubr
        </CharString>
        <CharString name="Egrave">
          -74 callsubr
          139 341 -76 callsubr
        </CharString>
        <CharString name="Eth">
          197 -15 66 226 65 212 66 hstem
          91 95 308 101 vstem
          36 277 rmoveto
          62 -79 hlineto
          56 callsubr
          -1 callsubr
          -125 -52 vlineto
          145 -278 rmoveto
          -9 133 rlineto
          80 143 vlineto
          8 75 -95 -10 rlineto
          -56 65 hlineto
          -15 callsubr
        </CharString>
        <CharString name="Euro">
          -15 58 156 47 55 48 137 61 hstem
          25 301 rmoveto
          46 hlineto
          -1 -9 0 -9 -37 vvcurveto
          -45 -47 50 hlineto
          -130 21 87 -84 115 hhcurveto
          65 66 29 53 53 hvcurveto
          -47 66 rlineto
          -58 -36 -47 -32 -48 hhcurveto
          -67 -55 62 94 -17 hvcurveto
          200 47 -205 hlineto
          -1 5 0 5 45 vvcurveto
          206 48 -201 hlineto
          100 14 49 37 119 hhcurveto
          101 -58 26 92 rlineto
          18 -45 -43 9 -43 hhcurveto
          -134 -100 -75 -123 -28 hvcurveto
          -55 hlineto
          endchar
        </CharString>
        <CharString name="F">
          -14 21 -21 267 65 203 70 hstem
          94 91 vstem
          187 535 rmoveto
          -72 callsubr
          -198 rlineto
          112 hlineto
          -14 197 rlineto
          70 -34 callsubr
          -96 75 hlineto
          endchar
        </CharString>
        <CharString name="G">
          177 -15 66 -44 -21 564 69 hstemhm
          55 101 315 87 hintmask 10111000
          55 292 rmoveto
          -192 106 -115 177 vhcurveto
          hintmask 01111000
          13 7 0 1 7 hvcurveto
          hintmask 10111000
          -1 -1 -1 -1 hhcurveto
          70 1 62 15 58 32 13 237 rcurveline
          -112 -6 16 -61 4 -115 rlineto
          -25 -42 -45 -12 -45 hhcurveto
          -113 -72 98 155 184 57 62 170 hvcurveto
          133 -66 32 105 rlineto
          20 -57 -56 10 -54 hhcurveto
          -197 -129 -129 -198 hvcurveto
          endchar
        </CharString>
        <CharString name="H">
          211 21 -21 283 70 252 -20 hstem
          94 91 294 91 vstem
          80 hmoveto
          10 callsubr
          86 308 -85 vlineto
          -14 -198 rlineto
          -82 callsubr
          -55 -308 54 -63 callsubr
          -210 vlineto
          endchar
        </CharString>
        <CharString name="I">
          -171 21 -21 605 -83 callsubr
          endchar
        </CharString>
        <CharString name="Iacute">
          49 callsubr
          235 -83 callsubr
          -4 455 -86 callsubr
        </CharString>
        <CharString name="Icircumflex">
          49 callsubr
          230 -83 callsubr
          -73 455 -89 callsubr
        </CharString>
        <CharString name="Idieresis">
          49 callsubr
          213 -83 callsubr
          73 539 -105 callsubr
        </CharString>
        <CharString name="Igrave">
          49 callsubr
          235 -83 callsubr
          111 487 -76 callsubr
        </CharString>
        <CharString name="J">
          -181 -154 -21 780 -20 hstem
          97 91 vstem
          99 12 rmoveto
          -14 -31 -54 -44 -56 -25 33 -87 rcurveline
          142 89 38 60 132 vvcurveto
          301 -63 callsubr
          0 0 -268 -5 -128 vhcurveto
          endchar
        </CharString>
        <CharString name="K">
          102 13 -21 29 18 callsubr
          hstemhm
          94 84 hintmask 10110000
          375 96 rmoveto
          82 callsubr
          -176 231 231 264 rlineto
          8 -122 vlineto
          -49 -111 -148 -177 rlineto
          -10 vlineto
          hintmask 01110000
          -131 -307 rmoveto
          -82 callsubr
          -210 vlineto
          endchar
        </CharString>
        <CharString name="L">
          71 callsubr
          94 84 -11 callsubr
          210 -63 callsubr
          -210 vlineto
          endchar
        </CharString>
        <CharString name="Lslash">
          71 callsubr
          87 91 -11 callsubr
          154 vlineto
          105 58 -28 51 -76 -42 13 187 -60 callsubr
          -36 vlineto
          -82 -45 28 -51 54 29 rlineto
          -107 vlineto
          endchar
        </CharString>
        <CharString name="M">
          289 21 -21 607 -20 hstem
          93 68 407 80 vstem
          572 hmoveto
          106 hlineto
          -24 197 -11 210 7 200 -106 -4 -11 -48 -151 -362 -168 347 -18 66 -104 -4 7 -194 -11 -210 -24 36 callsubr
          99 hlineto
          -7 197 11 255 197 -385 28 3 169 382 15 -254 rlineto
          endchar
        </CharString>
        <CharString name="N">
          203 18 -21 24 18 callsubr
          22 -20 hstemhm
          94 72 324 79 hintmask 10101100
          500 -3 rmoveto
          hintmask 01101100
          14 callsubr
          rlineto
          hintmask 01011100
          -28 67 -94 -4 14 -195 rlineto
          -210 vlineto
          56 callsubr
          100 27 callsubr
          249 vlineto
          306 -384 rlineto
          endchar
        </CharString>
        <CharString name="Ntilde">
          203 18 -21 24 18 callsubr
          89 -20 144 -20 hstemhm
          94 72 324 79 hintmask 10111110
          500 -3 rmoveto
          hintmask 01111110
          14 callsubr
          -28 67 -94 -4 14 -195 rlineto
          -210 vlineto
          56 callsubr
          100 27 callsubr
          249 vlineto
          306 -384 rlineto
          hintmask 10111110
          -20 731 -93 callsubr
        </CharString>
        <CharString name="O">
          11 callsubr
          -104 callsubr
          endchar
        </CharString>
        <CharString name="OE">
          442 -15 66 -51 70 209 65 191 70 -52 67 hstemhm
          55 101 355 88 hintmask 01110110
          497 -6 rmoveto
          -8 callsubr
          109 -6 10 88 -79 callsubr
          -96 63 hlineto
          60 callsubr
          -339 hlineto
          2 -27 rlineto
          hintmask 10101110
          28 -44 -48 14 -53 hhcurveto
          -182 -117 -128 -199 -191 105 -117 173 61 56 18 34 50 hvcurveto
          -344 260 -41 callsubr
          38 39 7 39 hhcurveto
          55 57 -14 -28 57 hvcurveto
          7 -103 rlineto
          -210 vlineto
          -8 -109 rlineto
          -21 -41 -65 -17 -39 -31 callsubr
          endchar
        </CharString>
        <CharString name="Oacute">
          -73 callsubr
          162 356 -86 callsubr
        </CharString>
        <CharString name="Ocircumflex">
          11 callsubr
          195 -20 -104 callsubr
          73 356 -89 callsubr
        </CharString>
        <CharString name="Odieresis">
          11 callsubr
          178 -20 -104 callsubr
          38 440 -88 callsubr
        </CharString>
        <CharString name="Ograve">
          -73 callsubr
          266 388 -76 callsubr
        </CharString>
        <CharString name="Omega">
          257 0 70 484 66 hstem
          77 102 352 102 vstem
          398 hmoveto
          264 hlineto
          8 86 -121 -16 rlineto
          -42 hlineto
          78 75 48 110 103 vvcurveto
          160 -108 102 -170 -169 -109 -103 -160 -105 48 -109 77 -73 vhcurveto
          -41 hlineto
          -121 16 8 -86 rlineto
          264 hlineto
          11 37 rlineto
          -79 36 -65 126 117 vvcurveto
          149 66 89 110 110 66 -89 -149 -117 -65 -126 -79 -36 vhcurveto
          endchar
        </CharString>
        <CharString name="Oslash">
          235 -77 -21 83 46 callsubr
          83 -20 -17 callsubr
          156 297 -41 callsubr
          32 39 8 37 hhcurveto
          12 12 -1 -2 12 hvcurveto
          -90 -484 rlineto
          -76 33 -41 81 116 vvcurveto
          376 9 rmoveto
          -95 -28 -103 -35 -34 vhcurveto
          -14 -34 -42 -9 -35 hhcurveto
          -18 -8 0 2 -8 hvcurveto
          90 485 rlineto
          77 -31 41 -81 -120 vvcurveto
          -477 -13 rmoveto
          -162 75 -109 129 -29 vhcurveto
          -15 -82 52 -9 15 84 rlineto
          -1 5 5 0 12 hhcurveto
          -22 callsubr
          162 -74 109 -131 30 hvcurveto
          15 82 -52 9 -16 -84 rlineto
          1 -5 -6 0 -10 hhcurveto
          -32 callsubr
          hvcurveto
          endchar
        </CharString>
        <CharString name="Otilde">
          11 callsubr
          54 -20 144 -20 -104 callsubr
          322 496 -93 callsubr
        </CharString>
        <CharString name="P">
          68 21 -21 247 42 271 60 hstem
          98 84 196 98 vstem
          218 250 rmoveto
          98 -5 rlineto
          103 15 57 65 104 vvcurveto
          127 -70 64 -139 -45 -59 -7 -14 -83 vhcurveto
          87 callsubr
          -269 vlineto
          37 callsubr
          19 2 15 hhcurveto
          87 45 -48 -93 -93 -47 -37 -116 hvcurveto
          endchar
        </CharString>
        <CharString name="Q">
          235 -127 -21 133 46 callsubr
          -17 callsubr
          156 297 -94 callsubr
          -101 -4 -21 callsubr
          41 39 7 13 36 vhcurveto
          93 -107 28 -46 115 20 -1 20 -54 35 -123 108 rlineto
          81 55 45 99 122 vvcurveto
          -68 callsubr
          endchar
        </CharString>
        <CharString name="R">
          91 13 -21 29 -21 560 60 hstemhm
          98 84 188 98 hintmask 10111000
          217 272 rmoveto
          132 -176 82 callsubr
          -117 154 rlineto
          88 20 48 62 95 vvcurveto
          125 -67 62 -136 -44 -57 -6 -15 -84 vhcurveto
          87 callsubr
          -269 vlineto
          hintmask 01111000
          37 callsubr
          17 2 14 hhcurveto
          84 43 -46 -91 -91 -43 -35 -110 hvcurveto
          endchar
        </CharString>
        <CharString name="RS">
          -233 endchar
        </CharString>
        <CharString name="S">
          49 -15 67 499 66 -64 callsubr
          endchar
        </CharString>
        <CharString name="Scaron">
          49 -15 67 499 66 200 -20 -64 callsubr
          24 667 -58 callsubr
          endchar
        </CharString>
        <CharString name="T">
          27 21 -21 532 73 12 -20 hstemhm
          200 84 hintmask 10110000
          20 529 rmoveto
          110 6 rlineto
          60 hlineto
          10 -127 rlineto
          -210 62 callsubr
          210 vlineto
          55 callsubr
          65 hlineto
          111 -6 10 88 rlineto
          hintmask 11010000
          24 callsubr
          -345 hlineto
          endchar
        </CharString>
        <CharString name="Thorn">
          58 21 -21 159 42 253 60 91 -20 hstem
          99 84 195 98 vstem
          85 hmoveto
          10 callsubr
          210 vlineto
          3 41 rlineto
          4 20 21 2 19 hhcurveto
          87 45 -45 -87 -86 -47 -35 -116 hvcurveto
          3 -39 98 -5 rlineto
          103 14 57 62 99 vvcurveto
          122 -69 60 -140 -22 -25 -2 -3 -30 vhcurveto
          7 96 -60 callsubr
          -210 vlineto
          endchar
        </CharString>
        <CharString name="U">
          178 -15 75 545 -99 callsubr
          endchar
        </CharString>
        <CharString name="Uacute">
          -62 callsubr
          205 245 -86 callsubr
        </CharString>
        <CharString name="Ucircumflex">
          51 callsubr
          230 -99 callsubr
          116 245 -89 callsubr
        </CharString>
        <CharString name="Udieresis">
          51 callsubr
          213 -99 callsubr
          262 329 -105 callsubr
        </CharString>
        <CharString name="Ugrave">
          -62 callsubr
          310 277 -76 callsubr
        </CharString>
        <CharString name="V">
          95 58 callsubr
          76 6 229 88 callsubr
          -131 -380 -122 384 rlineto
          hintmask 10100000
          -16 127 -116 -9 rlineto
          endchar
        </CharString>
        <CharString name="W">
          390 58 callsubr
          61 6 127 354 112 -360 71 6 225 88 callsubr
          -122 -367 -99 371 rlineto
          hintmask 10100000
          -16 127 -114 -9 37 -116 -113 -374 -109 372 -16 127 -114 -9 rlineto
          endchar
        </CharString>
        <CharString name="X">
          91 13 -21 29 18 callsubr
          27 -20 hstemhm
          hintmask 01100000
          25 hmoveto
          122 hlineto
          46 111 72 134 80 -133 rlineto
          hintmask 10100000
          52 -120 137 10 rlineto
          9 vlineto
          -100 125 -111 186 192 275 rlineto
          8 -122 vlineto
          -46 -111 -64 -106 -59 101 rlineto
          hintmask 01010000
          -54 123 -137 -10 rlineto
          -9 vlineto
          100 -125 94 -158 -202 -302 rlineto
          endchar
        </CharString>
        <CharString name="Y">
          42 40 callsubr
          27 -20 hstemhm
          210 98 hintmask 11010000
          -45 callsubr
          rlineto
          hintmask 10110000
          32 callsubr
          endchar
        </CharString>
        <CharString name="Yacute">
          42 40 callsubr
          235 -39 callsubr
          4 455 -86 callsubr
        </CharString>
        <CharString name="Ydieresis">
          42 40 callsubr
          213 -39 callsubr
          74 539 -105 callsubr
        </CharString>
        <CharString name="Z">
          96 callsubr
          9 -20 hstemhm
          hintmask 01100000
          31 -8 rmoveto
          hintmask 10010000
          28 callsubr
          rlineto
          hintmask 01100000
          30 callsubr
        </CharString>
        <CharString name="Zcaron">
          96 callsubr
          212 -20 hstemhm
          hintmask 01110000
          110 785 -58 callsubr
          -102 -825 rmoveto
          hintmask 10110000
          28 callsubr
          30 callsubr
        </CharString>
        <CharString name="a">
          16 callsubr
          -106 callsubr
          endchar
        </CharString>
        <CharString name="aacute">
          -78 callsubr
          33 384 -86 callsubr
        </CharString>
        <CharString name="acircumflex">
          16 callsubr
          209 -20 -106 callsubr
          -30 384 -89 callsubr
        </CharString>
        <CharString name="acute">
          94 callsubr
          145 502 -86 callsubr
        </CharString>
        <CharString name="adieresis">
          -77 callsubr
          -58 468 -88 callsubr
        </CharString>
        <CharString name="ae">
          254 -15 61 182 52 115 59 1 -20 hstemhm
          40 85 170 84 187 91 hintmask 11101110
          -35 callsubr
          56 52 23 54 63 vhcurveto
          -50 35 57 -27 72 hhcurveto
          39 callsubr
          hvcurveto
          -36 callsubr
          -74 -42 65 113 hvcurveto
          273 9 rlineto
          3 23 2 -7 callsubr
          -63 -44 -23 -49 -35 vhcurveto
          hintmask 11011110
          48 -26 -45 25 -62 hhcurveto
          -59 -65 -23 -38 -48 hvcurveto
          45 -75 84 74 rlineto
          hintmask 11101110
          -96 callsubr
          -39 7 -36 15 -33 vhcurveto
          -32 -34 -40 -17 -41 hhcurveto
          -48 -29 27 44 hvcurveto
          254 158 rmoveto
          2 48 15 40 21 20 -48 callsubr
          endchar
        </CharString>
        <CharString name="agrave">
          -78 callsubr
          167 416 -76 callsubr
        </CharString>
        <CharString name="ampersand">
          129 -15 61 -47 -21 586 56 hstemhm
          32 87 -55 83 167 81 hintmask 10101100
          398 316 rmoveto
          11 -96 rlineto
          -20 -3 -20 -4 -20 vhcurveto
          -145 143 rlineto
          69 43 69 49 89 vvcurveto
          89 -64 47 -87 -107 -73 -61 -88 -62 5 -31 69 -75 vhcurveto
          hintmask 10110100
          -57 -35 -49 -43 -77 vvcurveto
          -115 85 -48 110 74 57 21 38 41 vhcurveto
          hintmask 01110100
          57 -66 121 25 rlineto
          10 vlineto
          -87 61 -39 38 rlineto
          29 56 13 72 80 vvcurveto
          -273 -99 rmoveto
          140 -137 rlineto
          hintmask 10110100
          -23 -25 -37 -15 -53 hhcurveto
          -72 -54 30 87 38 28 28 37 27 hvcurveto
          130 222 rmoveto
          -63 -46 -36 -55 -33 vhcurveto
          hintmask 10101100
          -40 41 -26 37 55 vvcurveto
          26 8 30 16 20 vhcurveto
          5 18 25 4 19 hhcurveto
          48 33 -19 -67 hvcurveto
          endchar
        </CharString>
        <CharString name="apple">
          363 20 -21 606 -20 88 -20 35 -20 hstemhm
          hintmask 11010000
          713 162 rmoveto
          -7 28 -27 32 -45 5 -42 5 -28 8 -34 10 -1 9 -1 20 -2 16 13 1 11 3 6 7 9 10 4 17 3 25 2 22 3 29 13 31 rrcurveto
          3 16 2 37 34 vvcurveto
          20 -1 20 -2 12 vhcurveto
          72 -16 -47 37 -82 hhcurveto
          -122 -69 -66 -110 -91 32 -66 58 -19 hvcurveto
          -1 -30 -3 -42 -1 -14 -20 -1 -30 -10 -25 -9 -27 -10 -26 -11 -28 -4 -45 -6 -29 -31 -5 -30 -8 -30 rcurveline
          -12 -49 -3 -15 -3 -38 rrcurveto
          -5 4 -2 3 vhcurveto
          149 hlineto
          3 4 3 4 3 -4 3 -3 hvcurveto
          -142 hlineto
          3 32 3 15 11 48 7 29 rcurveline
          6 23 21 25 41 6 21 3 26 10 28 11 rrcurveto
          12 32 31 11 24 hhcurveto
          1 1 0 2 2 hvcurveto
          2 3 5 94 4 vvcurveto
          5 -1 1 -5 2 vhcurveto
          -52 14 -32 64 86 vvcurveto
          hintmask 11100000
          102 66 59 112 75 43 -31 -66 12 vhcurveto
          3 -15 1 -26 -25 vvcurveto
          -28 -1 -27 -3 -10 vhcurveto
          -14 -28 -5 -90 -9 -11 rrcurveto
          -6 -6 -12 -1 -9 -40 -8 13 -10 hhcurveto
          -3 -4 -1 -5 -2 1 -4 2 -1 hvcurveto
          -7 14 21 -6 18 hhcurveto
          2 -16 1 -25 2 -12 1 -4 11 -2 3 -1 34 -11 23 -7 41 -4 41 -4 23 -27 5 -24 5 -22 rcurveline
          14 -61 4 -17 -47 vvcurveto
          -19 hlineto
          -5 -2 -2 -5 -5 3 -1 3 hvcurveto
          26 hlineto
          5 2 3 4 54 -3 16 -9 41 hvcurveto
          -3 15 -4 15 -4 15 rrcurveto
          -206 401 rmoveto
          -26 -22 13 -11 18 28 rlineto
          3 hmoveto
          18 -28 13 11 -26 22 rlineto
          -3 11 rmoveto
          5 31 rlineto
          -17 hlineto
          5 -31 rlineto
          -1 -2 rmoveto
          -28 15 -6 -15 31 -7 rlineto
          14 hmoveto
          32 7 -6 15 -28 -15 rlineto
          endchar
        </CharString>
        <CharString name="approxequal">
          95 96 69 -55 -21 42 34 -34 69 58 69 -34 34 -34 69 7 -20 hstemhm
          hintmask 01101001
          446 207 rmoveto
          -29 -29 -27 -13 -31 hhcurveto
          hintmask 01011001
          38 callsubr
          hintmask 10000101
          72 callsubr
          -32 211 rmoveto
          -29 -29 -27 -13 -31 hhcurveto
          hintmask 10000010
          38 callsubr
          hintmask 10001001
          72 callsubr
          endchar
        </CharString>
        <CharString name="aring">
          16 callsubr
          47 35 95 37 hstemhm
          40 85 6 43 85 44 -8 84 hintmask 11111101
          -107 callsubr
          92 551 54 callsubr
          hvcurveto
          hintmask 11111110
          -49 callsubr
        </CharString>
        <CharString name="asciicircum">
          108 299 -21 327 -20 hstem
          80 278 rmoveto
          80 hlineto
          122 237 119 -237 rlineto
          80 hlineto
          -172 327 rlineto
          -57 hlineto
          endchar
        </CharString>
        <CharString name="asciitilde">
          95 228 69 -55 -21 42 34 42 -20 hstemhm
          hintmask 01110000
          185 263 rmoveto
          hintmask 10010000
          49 56 -35 55 hhcurveto
          56 43 20 42 34 hvcurveto
          -32 49 rlineto
          -29 -29 -25 -13 -29 hhcurveto
          hintmask 01110000
          -58 -53 35 -49 hhcurveto
          -56 -44 -20 -42 -33 hvcurveto
          32 -49 rlineto
          29 29 25 13 29 hhcurveto
          endchar
        </CharString>
        <CharString name="asterisk">
          0 251 -21 221 -20 182 -20 hstem
          193 399 rmoveto
          -131 -114 64 -55 95 145 rlineto
          12 hmoveto
          95 -145 64 55 -131 114 rlineto
          -16 52 rmoveto
          24 162 rlineto
          -84 hlineto
          24 -162 rlineto
          -6 -9 rmoveto
          -142 82 -31 -77 161 -39 rlineto
          71 hmoveto
          161 39 -31 77 -142 -82 rlineto
          endchar
        </CharString>
        <CharString name="at">
          333 -173 59 120 58 304 56 95 64 hstem
          35 76 129 80 158 78 120 75 vstem
          323 150 rmoveto
          39 17 63 16 53 7 rrcurveto
          -103 vlineto
          -14 -27 -35 -9 -25 hhcurveto
          -49 -22 18 39 8 1 9 2 12 hvcurveto
          -83 -47 rmoveto
          -59 47 -38 71 43 45 17 30 36 vhcurveto
          -37 15 16 -10 44 hhcurveto
          106 88 113 137 192 -138 135 -197 -220 -161 -161 -219 -220 159 -156 224 74 73 18 35 64 hvcurveto
          -20 44 rlineto
          -25 -61 -59 -13 -56 hhcurveto
          -191 -131 132 191 177 131 133 176 151 107 -111 -157 -117 -41 -72 -68 -5 hvcurveto
          -11 59 rlineto
          161 vlineto
          96 -50 51 -96 -55 -61 -22 -35 -44 vhcurveto
          42 -70 78 69 rlineto
          5 13 2 17 hhcurveto
          55 18 -31 -94 hvcurveto
          -197 -33 -41 -24 -83 vvcurveto
          endchar
        </CharString>
        <CharString name="atilde">
          -77 callsubr
          216 524 -93 callsubr
        </CharString>
        <CharString name="b">
          39 -15 61 339 69 226 -20 hstem
          80 82 188 92 vstem
          66 7 rmoveto
          -13 41 60 -9 41 hhcurveto
          143 91 101 159 128 -59 81 -93 -45 -46 -17 -30 -37 hvcurveto
          75 6 callsubr
          -111 -6 callsubr
          -362 vlineto
          82 -148 -13 callsubr
        </CharString>
        <CharString name="backslash">
          93 callsubr
          269 -40 rmoveto
          -187 700 rlineto
          -72 hlineto
          187 -700 rlineto
          endchar
        </CharString>
        <CharString name="bar">
          -71 -124 -21 834 63 callsubr
          834 hlineto
          -82 -8 rlineto
          endchar
        </CharString>
        <CharString name="braceleft">
          -167 50 callsubr
          118 78 vstem
          40 208 rmoveto
          45 -10 44 -33 -24 -33 -11 -195 -9 vvcurveto
          -87 24 -15 134 vhcurveto
          -9 82 -71 -10 rlineto
          269 vlineto
          40 -19 22 -56 28 vhcurveto
          58 32 17 20 39 vvcurveto
          289 vlineto
          71 -10 9 82 rlineto
          -134 -24 -15 -87 hvcurveto
          -9 11 -213 -35 vvcurveto
          -23 -43 -33 -40 -9 vhcurveto
          endchar
        </CharString>
        <CharString name="braceright">
          -167 50 callsubr
          90 78 vstem
          246 279 rmoveto
          -45 10 -44 33 24 33 11 195 9 vvcurveto
          87 -24 15 -134 vhcurveto
          9 -82 71 10 rlineto
          -269 vlineto
          -40 19 -22 56 -28 vhcurveto
          -58 -32 -17 -20 -39 vvcurveto
          -289 vlineto
          -71 10 -9 -82 rlineto
          134 24 15 87 hvcurveto
          9 -11 213 35 vvcurveto
          23 43 33 40 9 vhcurveto
          endchar
        </CharString>
        <CharString name="bracketleft">
          -220 50 callsubr
          70 73 vstem
          223 685 rmoveto
          -129 -24 -16 -86 hvcurveto
          -679 vlineto
          -86 24 -16 129 vhcurveto
          -9 82 -71 -10 rlineto
          739 vlineto
          71 -10 rlineto
          endchar
        </CharString>
        <CharString name="bracketright">
          -220 50 callsubr
          90 73 vstem
          19 603 rmoveto
          71 10 rlineto
          -739 vlineto
          -71 10 -9 -82 rlineto
          129 24 16 86 hvcurveto
          679 vlineto
          86 -24 16 -129 vhcurveto
          endchar
        </CharString>
        <CharString name="breve">
          -23 520 60 79 -20 hstem
          215 580 rmoveto
          -39 -38 28 51 -28 hvcurveto
          -37 -22 rlineto
          -82 32 43 -35 67 hhcurveto
          67 42 35 82 33 hvcurveto
          -37 22 rlineto
          -51 -29 -37 -28 -39 hhcurveto
          endchar
        </CharString>
        <CharString name="brokenbar">
          -71 -124 -21 369 96 369 63 callsubr
          369 -82 hlineto
          96 vmoveto
          82 369 hlineto
          -82 -8 rlineto
          endchar
        </CharString>
        <CharString name="bullet">
          -117 166 -21 196 -20 hstem
          70 243 rmoveto
          27 -41 29 -30 42 -27 41 27 30 30 27 41 -27 41 -30 29 -41 28 -42 -28 -29 -30 -27 -40 rrcurveto
          endchar
        </CharString>
        <CharString name="c">
          -25 -15 61 408 -20 hstem
          50 92 vstem
          50 209 rmoveto
          -135 80 -89 120 49 52 13 25 47 vhcurveto
          -30 callsubr
        </CharString>
        <CharString name="caron">
          -23 525 -21 162 -20 hstem
          77 634 -58 callsubr
          endchar
        </CharString>
        <CharString name="ccedilla">
          -25 -224 59 76 135 -61 61 408 -20 hstemhm
          50 92 118 59 hintmask 11011100
          50 209 rmoveto
          -125 67 -84 105 -13 -26 callsubr
          46 2 49 13 44 23 rlinecurve
          -30 callsubr
        </CharString>
        <CharString name="cedilla">
          -23 -224 59 163 -20 hstem
          255 59 vstem
          177 -89 rmoveto
          -56 callsubr
          24 48 -33 9 rlineto
          endchar
        </CharString>
        <CharString name="cent">
          -26 -21 604 -20 hstem
          93 92 51 98 vstem
          185 256 rmoveto
          108 25 51 62 13 vhcurveto
          -26 -333 rlineto
          -39 23 -22 57 81 vvcurveto
          -92 -10 rmoveto
          -112 56 -83 92 -23 vhcurveto
          -6 -75 rlineto
          52 hlineto
          5 69 rlineto
          6 hlineto
          50 54 13 25 48 hvcurveto
          -24 64 rlineto
          -26 -44 -46 -15 -39 hhcurveto
          27 343 96 -35 24 77 -29 13 -39 8 -47 2 rlinecurve
          5 66 rlineto
          -52 hlineto
          -6 -70 rlineto
          -111 -19 -72 -95 -127 vvcurveto
          endchar
        </CharString>
        <CharString name="circumflex">
          -23 523 -21 162 -20 hstem
          93 502 -89 callsubr
        </CharString>
        <CharString name="colon">
          -233 5 -21 422 -20 hstem
          40 336 12 callsubr
          -282 vmoveto
          -87 callsubr
        </CharString>
        <CharString name="comma">
          -227 -69 callsubr
          endchar
        </CharString>
        <CharString name="copyright">
          217 142 54 59 43 265 45 50 54 hstem
          50 64 62 65 315 64 vstem
          176 426 rmoveto
          -106 65 -65 105 41 36 9 18 37 vhcurveto
          -20 55 rlineto
          -25 -30 -31 -14 -28 hhcurveto
          -66 -44 53 81 93 31 38 75 11 6 0 -1 6 hvcurveto
          63 -44 26 64 rlineto
          18 -41 -36 8 -37 hhcurveto
          -100 -69 -75 -107 hvcurveto
          444 1 -50 callsubr
          endchar
        </CharString>
        <CharString name="d">
          41 -15 69 339 61 226 -20 hstem
          50 92 188 84 vstem
          202 -15 rmoveto
          45 47 18 32 41 hvcurveto
          -33 callsubr
          370 vlineto
          11 198 -108 -10 15 -105 rlineto
          -115 vlineto
          3 -19 -20 1 -15 hhcurveto
          -138 -90 -104 -157 -128 59 -80 93 hvcurveto
          29 69 rmoveto
          -61 -28 55 116 75 12 48 26 35 hvcurveto
          6 26 28 4 26 hhcurveto
          26 23 -4 -7 21 83 callsubr
          endchar
        </CharString>
        <CharString name="dagger">
          79 callsubr
          195 397 rmoveto
          -34 -397 rlineto
          104 hlineto
          -34 397 rlineto
          6 10 rmoveto
          44 callsubr
          -48 hmoveto
          42 callsubr
          41 44 rmoveto
          30 162 rlineto
          -93 hlineto
          28 -162 rlineto
          endchar
        </CharString>
        <CharString name="daggerdbl">
          79 callsubr
          27 162 48 162 vstem
          230 451 rmoveto
          35 162 rlineto
          -104 hlineto
          34 -162 rlineto
          1 -289 rmoveto
          -35 -162 rlineto
          104 hlineto
          -34 162 rlineto
          25 145 rmoveto
          -25 90 rlineto
          -36 hlineto
          -26 -90 26 -91 rlineto
          36 hlineto
          -42 -10 rmoveto
          42 callsubr
          273 vmoveto
          42 callsubr
          48 hmoveto
          44 callsubr
          -273 vmoveto
          44 callsubr
          endchar
        </CharString>
        <CharString name="degree">
          -115 342 49 179 50 hstem
          30 57 163 58 vstem
          30 481 rmoveto
          -78 61 -61 78 77 62 62 77 76 -63 63 -76 -77 -62 -62 -77 vhcurveto
          57 hmoveto
          52 34 37 48 47 34 -38 -51 -52 -34 -38 -47 -48 -34 37 53 vhcurveto
          endchar
        </CharString>
        <CharString name="dieresis">
          -23 546 -21 122 -20 hstem
          25 586 -88 callsubr
        </CharString>
        <CharString name="divide">
          42 -21 175 69 177 -20 hstem
          79 196 -27 callsubr
          118 -184 rmoveto
          19 callsubr
          302 vmoveto
          19 callsubr
          endchar
        </CharString>
        <CharString name="dollar">
          -78 -21 727 -20 hstemhm
          88 74 65 48 86 73 vstemhm
          82 14 rmoveto
          44 -17 45 -10 43 -2 -6 -84 rcurveline
          49 hlineto
          7 86 rlineto
          hintmask 11111000
          100 12 70 67 85 vvcurveto
          70 -34 37 -111 49 vhcurveto
          13 169 25 -8 27 -14 31 -21 rlinecurve
          26 89 -31 14 -35 8 -38 3 rlinecurve
          7 81 rlineto
          -49 hlineto
          -7 -83 rlineto
          -104 -10 -66 -58 -80 vvcurveto
          -71 37 -42 109 -48 vhcurveto
          -14 -182 -31 7 -31 15 -46 31 rlinecurve
          249 2 rmoveto
          -6 -1 -10 -1 -11 vhcurveto
          -20 -20 -36 -13 -34 hhcurveto
          13 165 rlineto
          55 -29 24 -32 -44 vvcurveto
          -199 348 rmoveto
          18 34 30 9 28 hhcurveto
          -12 -154 rlineto
          -56 32 -24 39 56 vvcurveto
          endchar
        </CharString>
        <CharString name="dotaccent">
          -23 557 -21 134 -20 hstem
          62 603 5 callsubr
        </CharString>
        <CharString name="dotlessi">
          70 callsubr
          451 -84 callsubr
          endchar
        </CharString>
        <CharString name="e">
          14 -9 callsubr
          -102 callsubr
          endchar
        </CharString>
        <CharString name="eacute">
          -75 callsubr
          -119 218 -86 callsubr
        </CharString>
        <CharString name="ecircumflex">
          14 -9 callsubr
          210 -20 -102 callsubr
          -198 218 -89 callsubr
        </CharString>
        <CharString name="edieresis">
          14 -9 callsubr
          193 -20 -102 callsubr
          -42 302 -105 callsubr
        </CharString>
        <CharString name="egrave">
          -75 callsubr
          6 250 -76 callsubr
        </CharString>
        <CharString name="eight">
          -17 65 545 64 hstemhm
          51 87 -66 81 208 81 -68 90 hintmask 11011000
          153 507 rmoveto
          21 4 22 7 23 vhcurveto
          13 21 30 7 31 hhcurveto
          68 47 -37 -54 -47 -31 -37 -74 -41 hvcurveto
          -73 37 -30 39 54 vvcurveto
          hintmask 11100100
          -15 -339 rmoveto
          53 44 50 76 34 vhcurveto
          84 -45 32 -40 -61 vvcurveto
          -27 -9 -35 -13 -26 vhcurveto
          -17 -27 -25 -6 -38 hhcurveto
          -73 -51 49 71 hvcurveto
          -87 -13 rmoveto
          -98 85 -74 112 125 91 77 106 72 -44 57 -93 47 vhcurveto
          hintmask 11011000
          76 48 39 56 62 vvcurveto
          82 -80 67 -97 -112 -81 -64 -89 -69 34 -47 85 -47 vhcurveto
          hintmask 11101000
          -106 -60 -34 -46 -80 vvcurveto
          endchar
        </CharString>
        <CharString name="ellipsis">
          228 5 97 callsubr
          40 54 12 callsubr
          230 hmoveto
          -91 callsubr
          231 hmoveto
          -87 callsubr
        </CharString>
        <CharString name="emdash">
          197 207 69 hstem
          20 207 rmoveto
          606 hlineto
          4 69 rlineto
          -606 hlineto
          endchar
        </CharString>
        <CharString name="endash">
          -15 207 69 hstem
          40 207 -27 callsubr
          endchar
        </CharString>
        <CharString name="equal">
          101 69 121 69 hstem
          81 101 rmoveto
          354 69 -354 hlineto
          121 vmoveto
          354 69 -354 hlineto
          endchar
        </CharString>
        <CharString name="eth">
          47 17 callsubr
          223 -20 hstem
          50 92 216 92 vstem
          261 46 -92 callsubr
          189 192 rmoveto
          150 -48 129 -89 72 vhcurveto
          68 50 -21 38 -94 -57 -42 22 -45 15 -51 9 rlinecurve
          -13 -43 32 -10 35 -12 32 -18 rlinecurve
          -68 -50 21 -38 91 56 38 -29 27 -35 30 -78 rlinecurve
          33 -42 -39 12 -42 hhcurveto
          -102 -78 -102 -142 -142 72 -83 125 126 77 96 157 hvcurveto
          endchar
        </CharString>
        <CharString name="exclam">
          -193 5 98 callsubr
          hstem
          87 89 vstem
          98 167 rmoveto
          69 7 18 457 -108 -8 rlineto
          -17 -569 rmoveto
          -87 callsubr
        </CharString>
        <CharString name="exclamdown">
          -193 -172 98 callsubr
          hstem
          84 88 vstem
          162 271 rmoveto
          -69 -7 -18 -457 108 8 rlineto
          17 569 rmoveto
          -20 30 -21 21 -29 19 -29 -19 -21 -21 -20 -30 20 -30 21 -20 29 -20 29 20 21 21 20 29 rrcurveto
          endchar
        </CharString>
        <CharString name="f">
          -141 92 callsubr
          95 94 vstem
          13 371 rmoveto
          9 callsubr
          103 21 41 57 10 vhcurveto
          86 -33 24 78 rlineto
          10 -27 -28 5 -29 hhcurveto
          -115 -71 -88 -143 hvcurveto
          -18 vlineto
          -92 -29 rlineto
          endchar
        </CharString>
        <CharString name="fi">
          69 21 -21 380 59 189 60 hstem
          95 94 176 89 vstem
          13 371 rmoveto
          15 callsubr
          178 vlineto
          188 11 rlineto
          -188 vlineto
          56 callsubr
          -52 callsubr
          -12 rlineto
          -173 35 hlineto
          112 29 39 85 3 vhcurveto
          111 -66 42 80 rlineto
          28 -35 -56 18 -52 66 callsubr
          rlineto
          endchar
        </CharString>
        <CharString name="five">
          -116 59 316 52 164 67 16 -20 hstemhm
          108 68 157 92 hintmask 11101100
          103 256 rmoveto
          2 22 22 1 22 hhcurveto
          112 52 -43 -93 -105 -91 -63 -166 -12 hvcurveto
          4 -59 rlineto
          213 6 132 94 147 vvcurveto
          113 -88 67 -148 vhcurveto
          -16 hlineto
          6 164 rlineto
          212 hlineto
          hintmask 11011100
          8 83 rlineto
          hintmask 11101100
          -121 -16 rlineto
          -164 hlineto
          endchar
        </CharString>
        <CharString name="fl">
          81 92 callsubr
          102 87 183 82 vstem
          358 22 callsubr
          -71 -7 rlineto
          9 -26 -32 6 -28 66 callsubr
          3 -39 rlineto
          9 callsubr
          100 23 37 70 17 vhcurveto
          95 -14 rlineto
          -416 vlineto
          endchar
        </CharString>
        <CharString name="florin">
          -195 -21 471 55 237 -20 hstem
          195 74 vstem
          116 245 rmoveto
          84 hlineto
          -9 -257 -3 -99 -24 -39 -63 -9 rlinecurve
          -87 31 -26 -74 rlineto
          -9 28 28 -5 30 hhcurveto
          115 75 84 136 5 hvcurveto
          9 247 116 9 3 50 rlineto
          -117 hlineto
          131 26 42 64 7 vhcurveto
          90 -31 26 74 rlineto
          9 -29 -30 5 -30 hhcurveto
          -115 -80 -84 -153 hvcurveto
          -88 -27 rlineto
          endchar
        </CharString>
        <CharString name="four">
          -98 -21 212 62 392 -20 hstem
          299 80 vstem
          39 93 rmoveto
          260 -33 hlineto
          -16 -179 96 12 rlineto
          200 98 vlineto
          7 78 -105 -14 rlineto
          390 -39 vlineto
          -308 -408 rlineto
          83 16 rmoveto
          184 246 rlineto
          -246 vlineto
          endchar
        </CharString>
        <CharString name="fraction">
          -228 -14 -21 676 -20 hstem
          7 -12 callsubr
          endchar
        </CharString>
        <CharString name="g">
          47 -219 56 308 56 197 56 1 -20 hstemhm
          45 81 -67 87 177 85 -37 79 hintmask 11101001
          78 80 rmoveto
          -27 15 -21 31 -16 vhcurveto
          -54 -33 -25 -39 -47 vvcurveto
          -72 65 -44 105 138 97 72 103 58 -30 32 -62 8 vhcurveto
          -77 9 -90 10 -24 6 -25 18 rlinecurve
          26 54 rlineto
          -4 18 15 -2 25 hhcurveto
          hintmask 11011010
          113 69 61 100 30 -6 26 -13 23 hvcurveto
          71 -4 10 74 -129 -24 rlineto
          hintmask 11100110
          15 -25 -33 8 -43 hhcurveto
          -112 -69 -61 -100 -58 24 -45 44 -24 hvcurveto
          -41 -50 -8 -13 -23 vvcurveto
          hintmask 11101001
          48 -160 rmoveto
          32 12 30 21 20 vhcurveto
          206 -37 rlineto
          4 -11 2 -13 -17 vvcurveto
          -57 -43 -30 -83 -79 -40 28 55 vhcurveto
          109 281 rmoveto
          hintmask 11100110
          -60 -29 32 68 35 9 39 12 14 hvcurveto
          6 19 24 3 19 hhcurveto
          66 28 -29 -68 -68 -28 -32 -60 hvcurveto
          endchar
        </CharString>
        <CharString name="germandbls">
          101 -15 61 -25 -21 587 60 hstemhm
          79 83 81 68 3 80 39 76 hintmask 01111110
          65 hmoveto
          97 433 hlineto
          114 20 40 58 55 19 -19 -34 vhcurveto
          -47 -71 -57 -63 -166 190 13 -121 vvcurveto
          -10 -1 -11 -1 -3 vhcurveto
          hintmask 10111110
          -14 -18 -26 -9 -22 hhcurveto
          -35 -34 15 35 -45 hvcurveto
          -27 -87 rlineto
          -15 35 44 -9 37 hhcurveto
          95 74 63 81 hvcurveto
          160 -198 -3 115 vvcurveto
          36 39 47 42 67 vvcurveto
          55 -46 43 -94 -108 -67 -88 -143 vhcurveto
          -218 vlineto
          endchar
        </CharString>
        <CharString name="grave">
          94 callsubr
          308 534 -76 callsubr
        </CharString>
        <CharString name="greater">
          68 -21 367 -20 hstem
          67 112 34 callsubr
          endchar
        </CharString>
        <CharString name="greaterequal">
          0 69 385 -20 hstem
          79 152 34 callsubr
          -282 -270 -27 callsubr
          endchar
        </CharString>
        <CharString name="guillemotleft">
          47 -4 callsubr
          242 30 -29 callsubr
          endchar
        </CharString>
        <CharString name="guillemotright">
          47 -2 callsubr
          172 -30 -28 callsubr
          endchar
        </CharString>
        <CharString name="guilsinglleft">
          -160 -4 callsubr
          endchar
        </CharString>
        <CharString name="guilsinglright">
          -160 -2 callsubr
          endchar
        </CharString>
        <CharString name="h">
          53 52 callsubr
          226 -20 hstemhm
          80 87 179 84 hintmask 01111100
          66 48 callsubr
          151 vlineto
          3 callsubr
          -36 48 -69 86 callsubr
          83 84 callsubr
          -369 vlineto
          endchar
        </CharString>
        <CharString name="hungarumlaut">
          -23 523 -21 172 -20 hstem
          229 502 rmoveto
          162 120 -54 51 -135 -138 rlineto
          -136 -32 rmoveto
          161 119 -54 52 -134 -139 rlineto
          endchar
        </CharString>
        <CharString name="hyphen">
          -137 226 -21 82 -20 hstem
          40 205 rmoveto
          236 12 rlineto
          70 vlineto
          -236 -12 rlineto
          endchar
        </CharString>
        <CharString name="i">
          70 callsubr
          670 -84 callsubr
          -28 405 5 callsubr
        </CharString>
        <CharString name="iacute">
          -10 callsubr
          -21 304 -86 callsubr
        </CharString>
        <CharString name="icircumflex">
          70 callsubr
          664 -84 callsubr
          -76 304 -89 callsubr
        </CharString>
        <CharString name="idieresis">
          -224 21 -21 647 -84 callsubr
          70 388 -105 callsubr
        </CharString>
        <CharString name="igrave">
          -10 callsubr
          110 336 -76 callsubr
        </CharString>
        <CharString name="infinity">
          318 44 72 -53 -21 277 74 2 -20 hstemhm
          60 66 519 66 hintmask 10101100
          550 319 rmoveto
          22 30 -8 -11 24 hvcurveto
          14 -23 5 -22 -33 vvcurveto
          -63 -42 -43 -61 -46 -34 29 72 -39 vhcurveto
          73 41 36 29 50 hhcurveto
          -329 -201 rmoveto
          -22 -30 8 11 -24 hvcurveto
          -14 23 -5 21 34 vvcurveto
          63 42 43 61 44 31 -27 -76 44 vhcurveto
          -72 -43 -35 -28 -49 hhcurveto
          hintmask 10011100
          277 vmoveto
          -96 -65 -71 -106 -102 67 -72 94 68 50 33 75 46 hvcurveto
          hintmask 01101100
          -76 47 52 -34 69 hhcurveto
          92 66 74 104 100 -68 73 -93 -67 -49 -33 -77 -48 hvcurveto
          hintmask 10011100
          78 -48 -49 34 -68 hhcurveto
          endchar
        </CharString>
        <CharString name="integral">
          -86 -107 -21 784 -20 hstem
          132 83 vstem
          132 279 rmoveto
          -97 -2 -80 -3 -71 vhcurveto
          -28 -31 -31 -22 -48 -21 32 -85 rcurveline
          120 77 43 77 143 vvcurveto
          141 vlineto
          55 2 61 3 71 vhcurveto
          27 30 31 22 49 22 -32 85 rcurveline
          -121 -78 -42 -77 -142 vvcurveto
          endchar
        </CharString>
        <CharString name="j">
          -197 -198 -21 889 -20 hstem
          89 77 vstem
          74 -56 rmoveto
          -28 -30 -34 -23 -52 -23 33 -87 rcurveline
          128 80 45 79 145 vvcurveto
          170 69 callsubr
          -103 -18 callsubr
          -109 -5 -76 -10 -69 vhcurveto
          -14 659 rmoveto
          19 -28 20 -21 28 -18 28 19 21 20 18 28 -18 27 -21 21 -28 19 -28 -19 -20 -20 -19 -28 rrcurveto
          endchar
        </CharString>
        <CharString name="k">
          3 18 -21 24 -21 439 -20 261 -20 hstemhm
          80 82 hintmask 01111000
          25 callsubr
          100 48 rmoveto
          115 -164 rlineto
          hintmask 10111000
          43 -85 128 5 rlineto
          10 vlineto
          -83 86 -113 159 157 174 rlineto
          8 -105 vlineto
          -43 -79 -99 -107 rlineto
          endchar
        </CharString>
        <CharString name="l">
          91 callsubr
          82 vstem
          25 callsubr
          endchar
        </CharString>
        <CharString name="less">
          68 -21 367 -20 hstem
          155 230 35 callsubr
          endchar
        </CharString>
        <CharString name="lessequal">
          0 69 385 -20 hstem
          155 270 35 callsubr
          -358 -152 -27 callsubr
          endchar
        </CharString>
        <CharString name="logicalnot">
          93 172 -69 69 hstemhm
          366 69 hintmask 01100000
          81 196 rmoveto
          285 hlineto
          hintmask 10100000
          -103 69 172 -354 vlineto
          endchar
        </CharString>
        <CharString name="lozenge">
          51 -53 -21 696 -20 hstem
          474 275 rmoveto
          -188 347 -71 -3 -185 -344 188 -349 69 3 rlineto
          -46 97 rmoveto
          -130 249 130 248 136 -248 rlineto
          endchar
        </CharString>
        <CharString name="lslash">
          91 callsubr
          86 vstem
          66 48 callsubr
          156 vlineto
          91 50 -28 51 -63 -34 rlineto
          64 84 callsubr
          -192 vlineto
          -78 -42 28 -51 50 27 rlineto
          -111 vlineto
          endchar
        </CharString>
        <CharString name="m">
          304 52 callsubr
          hstemhm
          73 89 177 84 175 84 hintmask 01111100
          66 hmoveto
          96 348 hlineto
          7 callsubr
          7 -1 8 -1 17 vhcurveto
          7 callsubr
          90 -36 48 -66 -55 -57 -20 -39 -58 vhcurveto
          40 -17 -29 19 -43 hhcurveto
          -51 -57 -19 -34 -51 hvcurveto
          43 callsubr
          endchar
        </CharString>
        <CharString name="macron">
          -23 552 72 hstem
          348 552 rmoveto
          72 -266 -72 vlineto
          endchar
        </CharString>
        <CharString name="minus">
          196 69 hstem
          79 196 -27 callsubr
          endchar
        </CharString>
        <CharString name="mu">
          49 74 callsubr
          69 397 -20 hstem
          75 91 171 90 vstem
          75 -21 rmoveto
          -11 -198 105 10 -19 -5 callsubr
          -2 9 10 -1 11 hhcurveto
          52 59 19 34 52 hvcurveto
          -50 vlineto
          99 10 -15 103 rlineto
          350 vlineto
          -96 -10 12 -350 rlineto
          -22 -42 -52 -15 -38 -19 callsubr
          224 -98 -10 rlineto
          endchar
        </CharString>
        <CharString name="multiply">
          74 -21 355 -20 hstem
          130 53 rmoveto
          128 128 128 -128 49 49 -128 128 128 129 -49 49 -128 -129 -128 129 -49 -49 128 -129 -128 -128 rlineto
          endchar
        </CharString>
        <CharString name="n">
          52 52 callsubr
          hstemhm
          73 89 184 84 hintmask 01111000
          66 hmoveto
          96 348 hlineto
          23 callsubr
          hintmask 10111000
          -14 -215 rlineto
          hintmask 01111000
          98 5 rlineto
          316 vlineto
          90 -37 48 -68 86 callsubr
          43 callsubr
          endchar
        </CharString>
        <CharString name="nine">
          -105 -21 279 58 271 65 hstem
          51 90 233 90 vstem
          251 547 rmoveto
          -115 -85 -93 -126 -102 69 -73 97 hvcurveto
          107 27 -5 36 rlineto
          -3 -22 -17 -2 -14 hhcurveto
          -85 -40 42 91 48 10 47 14 21 hvcurveto
          14 23 30 8 28 hhcurveto
          90 38 -66 -156 -212 -81 -95 -199 -20 hvcurveto
          4 -59 rlineto
          237 16 129 142 244 vvcurveto
          171 -78 100 -135 vhcurveto
          endchar
        </CharString>
        <CharString name="notequal">
          -1 -21 123 69 121 69 101 -20 hstem
          81 291 rmoveto
          159 hlineto
          -22 -121 rlineto
          -137 -69 124 hlineto
          -21 -116 44 -7 22 123 rlineto
          185 69 -172 hlineto
          23 121 rlineto
          149 69 -137 hlineto
          18 94 -44 7 -19 -101 rlineto
          -172 hlineto
          endchar
        </CharString>
        <CharString name="ntilde">
          52 52 callsubr
          193 -20 hstemhm
          73 89 184 84 hintmask 01111100
          66 hmoveto
          96 348 hlineto
          3 callsubr
          -37 48 -68 86 callsubr
          43 callsubr
          296 444 -93 callsubr
        </CharString>
        <CharString name="numbersign">
          0 180 -69 69 101 69 -69 196 hstemhm
          hintmask 10100000
          330 hmoveto
          hintmask 01100000
          22 111 rlineto
          95 hlineto
          15 69 rlineto
          -96 hlineto
          20 101 rlineto
          96 hlineto
          14 69 rlineto
          -97 57 callsubr
          -105 57 callsubr
          -94 hlineto
          -14 -69 rlineto
          95 hlineto
          -20 -101 rlineto
          -95 hlineto
          hintmask 01100000
          -15 -69 rlineto
          96 hlineto
          hintmask 10100000
          -22 -111 rlineto
          67 hlineto
          hintmask 01100000
          22 111 rlineto
          105 hlineto
          hintmask 10100000
          -22 -111 rlineto
          -49 281 rmoveto
          105 hlineto
          -20 -101 rlineto
          -105 hlineto
          endchar
        </CharString>
        <CharString name="o">
          47 17 callsubr
          -103 callsubr
          endchar
        </CharString>
        <CharString name="oacute">
          -66 callsubr
          -57 456 -86 callsubr
        </CharString>
        <CharString name="ocircumflex">
          47 17 callsubr
          210 -20 -103 callsubr
          -126 456 -89 callsubr
        </CharString>
        <CharString name="odieresis">
          -65 callsubr
          -161 540 -88 callsubr
        </CharString>
        <CharString name="oe">
          322 -9 callsubr
          hstem
          50 92 216 92 184 91 -46 callsubr
          67 52 30 58 35 vhcurveto
          -58 36 56 -30 76 hhcurveto
          39 callsubr
          hvcurveto
          -70 callsubr
          2 23 3 -7 callsubr
          -69 -48 -27 -62 -37 vhcurveto
          58 -34 -55 31 -70 hhcurveto
          2 callsubr
          hvcurveto
          211 -164 -81 callsubr
          80 41 -51 -121 -87 -14 -50 -19 -28 hvcurveto
          -8 -27 -16 -2 -21 hhcurveto
          188 230 rmoveto
          5 53 11 38 17 17 rrcurveto
          6 15 24 3 27 hhcurveto
          63 22 -27 -82 1 hvcurveto
          endchar
        </CharString>
        <CharString name="ogonek">
          2 -224 57 -57 224 hstemhm
          129 69 hintmask 10100000
          222 hmoveto
          -57 -31 -36 -51 -50 vvcurveto
          -54 44 -38 62 35 30 12 24 26 vhcurveto
          -25 38 rlineto
          -11 -18 -18 -6 -19 hhcurveto
          -32 -16 16 32 hvcurveto
          hintmask 01100000
          48 56 53 70 18 vhcurveto
          endchar
        </CharString>
        <CharString name="ograve">
          -66 callsubr
          67 488 -76 callsubr
        </CharString>
        <CharString name="one">
          0 69 478 -20 hstem
          250 77 vstem
          116 428 rmoveto
          134 24 rlineto
          -254 vlineto
          -11 -146 -113 -8 -2 -44 rlineto
          312 hlineto
          -3 68 -106 -8 rlineto
          487 -21 vlineto
          -199 -76 rlineto
          endchar
        </CharString>
        <CharString name="onehalf">
          395 -14 -21 35 58 202 41 -2 57 260 -20 45 -20 hstemhm
          149 68 466 77 hintmask 11101111
          284 -12 callsubr
          279 15 20 callsubr
          hintmask 11011111
          -16 callsubr
          -420 486 31 callsubr
          rlineto
          hintmask 11101111
          -14 callsubr
          endchar
        </CharString>
        <CharString name="onequarter">
          90 callsubr
          106 41 315 -20 45 -20 hstemhm
          202 68 359 68 hintmask 10111111
          337 29 callsubr
          hintmask 11011111
          -9 -85 rlineto
          77 hlineto
          hintmask 10111111
          47 callsubr
          -361 374 -3 callsubr
          429 -401 85 callsubr
        </CharString>
        <CharString name="onesuperior">
          -53 191 41 315 -20 hstem
          180 68 vstem
          99 450 -3 callsubr
          endchar
        </CharString>
        <CharString name="ordfeminine">
          -83 149 55 -40 -21 110 57 254 56 hstemhm
          40 75 133 68 hintmask 10111100
          40 352 rmoveto
          -62 40 -37 67 36 37 14 25 32 vhcurveto
          3 -39 75 11 -14 88 rlineto
          145 vlineto
          82 -43 41 -85 -48 -57 -19 -29 -35 vhcurveto
          39 -67 63 58 rlineto
          4 17 1 13 hhcurveto
          48 16 -22 -69 hvcurveto
          -172 -31 -36 -21 -69 vvcurveto
          hintmask 01111100
          9 -209 rmoveto
          267 12 rlineto
          55 vlineto
          -267 -12 rlineto
          66 160 rmoveto
          7 2 8 4 13 vhcurveto
          31 14 50 13 46 7 rrcurveto
          -88 vlineto
          -14 -20 -28 -8 -25 hhcurveto
          -37 -23 18 30 hvcurveto
          endchar
        </CharString>
        <CharString name="ordmasculine">
          -60 149 55 -40 -21 110 56 255 56 hstemhm
          40 75 163 75 hintmask 10111100
          40 429 rmoveto
          -112 56 -64 98 97 62 74 118 111 -56 64 -99 -96 -62 -74 -117 vhcurveto
          165 -120 rmoveto
          -62 -28 41 92 48 10 46 15 20 hvcurveto
          6 18 13 2 15 hhcurveto
          63 29 -41 -92 -50 -9 -42 -16 -22 hvcurveto
          -6 -18 -13 -2 -17 hhcurveto
          hintmask 01111100
          -150 -166 rmoveto
          281 12 rlineto
          55 vlineto
          -281 -12 rlineto
          endchar
        </CharString>
        <CharString name="oslash">
          47 -77 -21 104 -21 408 61 -1 -20 104 -20 hstemhm
          50 92 216 92 hintmask 11101110
          261 46 rmoveto
          -9 -3 0 1 -4 hvcurveto
          60 327 rlineto
          36 -26 17 -53 -83 vvcurveto
          -69 -12 -57 -21 -30 vhcurveto
          -7 -25 -17 -3 -22 hhcurveto
          -119 181 rmoveto
          65 13 63 20 28 vhcurveto
          7 28 16 3 18 6 6 -1 6 hhcurveto
          -61 -328 rlineto
          -35 25 -17 52 86 vvcurveto
          -92 -17 rmoveto
          -115 47 -77 84 -24 vhcurveto
          -15 -83 52 -9 15 83 rlineto
          14 hlineto
          124 79 95 150 114 -46 76 -86 25 hvcurveto
          16 83 -52 9 rlineto
          hintmask 11011110
          -16 -84 rlineto
          hintmask 11101110
          -4 -5 1 -5 hhcurveto
          2 callsubr
          hvcurveto
          endchar
        </CharString>
        <CharString name="otilde">
          -65 callsubr
          120 596 -93 callsubr
        </CharString>
        <CharString name="p">
          44 74 callsubr
          61 339 69 hstem
          83 84 188 92 vstem
          83 4 callsubr
          -45 -47 -18 -32 -41 hvcurveto
          -4 50 -93 -14 18 -113 rlineto
          84 -270 33 callsubr
          -55 -116 -76 -12 -48 -26 -34 hvcurveto
          -7 -26 -28 -3 -26 hhcurveto
          -27 -23 4 7 -20 hvcurveto
          endchar
        </CharString>
        <CharString name="paragraph">
          47 21 -21 620 -20 hstemhm
          50 242 -72 72 52 73 hintmask 11011000
          220 302 rmoveto
          -302 72 556 vlineto
          19 -1 14 -2 19 -3 rrcurveto
          -550 73 491 vlineto
          18 112 rlineto
          17 -143 -8 0 -26 hhcurveto
          hintmask 11101000
          -115 -93 -37 -122 hvcurveto
          hintmask 11011000
          -114 48 -45 122 vhcurveto
          endchar
        </CharString>
        <CharString name="parenleft">
          89 callsubr
          70 90 vstem
          289 -186 rmoveto
          -80 77 -49 159 182 vvcurveto
          180 49 159 80 80 vhcurveto
          -42 44 rlineto
          -112 -103 -65 -169 -185 vvcurveto
          -187 65 -172 112 -109 vhcurveto
          endchar
        </CharString>
        <CharString name="parenright">
          89 callsubr
          104 90 vstem
          -25 -186 rmoveto
          42 -44 rlineto
          112 109 65 172 187 vvcurveto
          185 -65 169 -112 103 vhcurveto
          -42 -44 rlineto
          80 -80 49 -159 -180 vvcurveto
          -182 -49 -159 -80 -77 vhcurveto
          endchar
        </CharString>
        <CharString name="partialdiff">
          15 -15 65 269 60 198 80 hstem
          40 87 222 79 vstem
          209 50 rmoveto
          -25 -25 8 14 -20 hvcurveto
          -8 13 -4 27 35 vvcurveto
          112 41 60 77 29 35 -12 -23 40 vhcurveto
          -139 -4 -56 -95 -80 hhcurveto
          -144 607 rmoveto
          -5 -82 121 4 87 -45 58 -80 17 -98 rlinecurve
          15 -37 -36 8 -33 hhcurveto
          -117 -80 -82 -119 -115 67 -78 98 135 88 117 179 215 -155 160 -208 1 hvcurveto
          endchar
        </CharString>
        <CharString name="percent">
          395 13 callsubr
          hintmask 1001101111000000
          502 147 rmoveto
          -54 callsubr
          -435 231 rmoveto
          hintmask 0110101111000000
          8 callsubr
          hintmask 0110011111000000
          65 callsubr
          hintmask 1010101111000000
          -55 callsubr
          435 -231 rmoveto
          hintmask 1001101111000000
          -55 callsubr
          endchar
        </CharString>
        <CharString name="period">
          -233 5 97 callsubr
          40 54 rmoveto
          -87 callsubr
        </CharString>
        <CharString name="periodcentered">
          -179 170 97 callsubr
          67 219 rmoveto
          -87 callsubr
        </CharString>
        <CharString name="perthousand">
          736 13 callsubr
          62 70 139 70 hintmask 1001101111110000
          502 147 rmoveto
          -54 callsubr
          341 hmoveto
          -54 callsubr
          -776 231 rmoveto
          hintmask 0110101111110000
          8 callsubr
          hintmask 0110011111110000
          65 callsubr
          hintmask 1010101111110000
          -55 callsubr
          776 -231 rmoveto
          hintmask 1001101111110000
          -55 callsubr
          -341 hmoveto
          -55 callsubr
          endchar
        </CharString>
        <CharString name="pi">
          81 6 -21 36 -21 384 70 12 -20 hstemhm
          37 150 132 86 hintmask 01101100
          35 378 rmoveto
          70 4 rlineto
          -184 vlineto
          56 callsubr
          102 -40 callsubr
          58 vlineto
          7 129 rlineto
          130 -289 hlineto
          hintmask 10011100
          11 -110 93 14 -18 113 rlineto
          270 vlineto
          79 -4 10 88 rlineto
          hintmask 01101100
          24 callsubr
          -345 hlineto
          endchar
        </CharString>
        <CharString name="plus">
          74 -21 143 81 callsubr
          196 rmoveto
          142 -143 69 143 61 callsubr
          endchar
        </CharString>
        <CharString name="plusminus">
          0 69 174 81 callsubr
          243 rmoveto
          142 -133 69 133 61 callsubr
          -2 -312 -27 callsubr
          endchar
        </CharString>
        <CharString name="product">
          171 -114 -21 703 80 12 -20 hstemhm
          47 171 -84 84 180 84 hintmask 10110100
          398 70 rmoveto
          14 -205 91 13 -21 190 rlineto
          339 vlineto
          11 164 96 -5 10 94 rlineto
          hintmask 11001100
          24 callsubr
          -440 hlineto
          -5 -82 77 4 12 -162 rlineto
          -335 62 callsubr
          335 vlineto
          11 165 rlineto
          157 hlineto
          12 -164 rlineto
          endchar
        </CharString>
        <CharString name="q">
          42 74 callsubr
          69 339 61 hstem
          50 92 188 82 vstem
          231 54 rmoveto
          -61 -28 54 116 72 13 58 24 29 hvcurveto
          7 28 28 3 28 hhcurveto
          28 22 -4 -7 17 83 callsubr
          -29 -69 rmoveto
          44 46 17 30 38 hvcurveto
          -53 vlineto
          -14 -198 111 10 -15 103 rlineto
          433 vlineto
          18 113 rlineto
          10 -57 -47 4 -42 hhcurveto
          -143 -91 -101 -159 -128 59 -81 93 hvcurveto
          endchar
        </CharString>
        <CharString name="question">
          -86 5 98 callsubr
          hstemhm
          237 88 vstemhm
          325 512 rmoveto
          91 -73 28 -96 -45 -51 -6 -9 -50 vhcurveto
          24 -78 83 32 rlineto
          43 -2 77 -6 -67 vvcurveto
          hintmask 11100000
          -104 -150 -81 -55 vvcurveto
          -35 69 -35 64 -14 vhcurveto
          21 50 -29 15 -27 14 -14 20 rlinecurve
          6 28 148 120 94 vvcurveto
          -229 -458 rmoveto
          67 callsubr
          64 callsubr
          rrcurveto
          endchar
        </CharString>
        <CharString name="questiondown">
          -86 -149 98 callsubr
          hstemhm
          42 88 vstemhm
          42 -51 rmoveto
          -91 73 -28 96 45 51 6 9 50 vhcurveto
          -24 78 -83 -32 rlineto
          -43 2 -77 6 67 vvcurveto
          hintmask 11100000
          104 150 81 55 vvcurveto
          35 -69 35 -64 14 vhcurveto
          -21 -50 29 -15 27 -14 14 -20 rlinecurve
          -6 -28 -148 -120 -94 vvcurveto
          229 458 rmoveto
          64 callsubr
          67 callsubr
          rrcurveto
          endchar
        </CharString>
        <CharString name="quotedbl">
          -107 392 -21 261 -20 hstem
          207 371 53 callsubr
          -127 -253 53 callsubr
          endchar
        </CharString>
        <CharString name="quotedblbase">
          -47 -69 callsubr
          180 -20 callsubr
        </CharString>
        <CharString name="quotedblleft">
          -62 -38 callsubr
          180 hmoveto
          -59 callsubr
          endchar
        </CharString>
        <CharString name="quotedblright">
          -62 374 75 callsubr
          210 561 rmoveto
          -97 callsubr
          -180 -20 callsubr
        </CharString>
        <CharString name="quoteleft">
          -242 -38 callsubr
          endchar
        </CharString>
        <CharString name="quoteright">
          -242 374 75 callsubr
          30 561 rmoveto
          -97 callsubr
          endchar
        </CharString>
        <CharString name="quotesinglbase">
          -227 -69 callsubr
          endchar
        </CharString>
        <CharString name="quotesingle">
          -249 393 -21 261 -20 hstem
          65 372 53 callsubr
          endchar
        </CharString>
        <CharString name="r">
          -119 21 -21 454 -20 hstem
          73 89 vstem
          66 hmoveto
          102 -40 callsubr
          101 vlineto
          19 35 20 26 26 23 90 -27 rcurveline
          27 86 rlineto
          9 -20 -20 4 -18 hhcurveto
          -40 -33 -22 -56 -46 hvcurveto
          4 75 -101 -18 callsubr
          endchar
        </CharString>
        <CharString name="radical">
          107 -105 -21 782 -20 hstem
          449 591 rmoveto
          53 hlineto
          83 -11 -7 76 rlineto
          -185 hlineto
          -175 -675 -128 325 rlineto
          -89 hlineto
          169 -432 rlineto
          92 hlineto
          endchar
        </CharString>
        <CharString name="registered">
          217 142 54 58 175 137 42 50 54 hstem
          50 64 119 57 92 65 109 64 vstem
          620 427 -50 callsubr
          -331 -171 rmoveto
          72 hlineto
          -7 112 rlineto
          119 vlineto
          4 76 rlineto
          2 9 8 1 8 hhcurveto
          42 21 -24 -48 -47 -23 -18 -59 hvcurveto
          -23 vlineto
          64 -95 29 -59 87 4 rlineto
          13 vlineto
          -48 45 -61 87 rlineto
          49 12 27 35 54 vvcurveto
          71 -38 35 -80 -24 -33 -4 -8 -50 vhcurveto
          11 -75 rlineto
          -152 vlineto
          endchar
        </CharString>
        <CharString name="ring">
          -23 502 35 95 37 hstem
          129 43 85 44 vstem
          215 669 -25 callsubr
        </CharString>
        <CharString name="s">
          -63 17 callsubr
          -71 callsubr
          endchar
        </CharString>
        <CharString name="scaron">
          -63 17 callsubr
          212 -20 -71 callsubr
          2 538 -58 callsubr
          endchar
        </CharString>
        <CharString name="section">
          -17 -125 60 660 60 hstem
          59 75 170 76 vstem
          380 49 rmoveto
          40 -16 32 -34 30 vhcurveto
          32 30 18 40 43 vvcurveto
          63 -39 38 -105 61 vhcurveto
          -86 51 -19 31 62 vvcurveto
          16 25 29 9 28 hhcurveto
          37 39 -13 -28 49 hvcurveto
          27 79 rlineto
          14 -34 -43 8 -38 hhcurveto
          -108 -83 -66 -86 -43 15 -33 34 -29 hvcurveto
          -29 -28 -20 -44 -38 vvcurveto
          -61 31 -39 86 -48 vhcurveto
          110 -62 18 -19 -53 vvcurveto
          -24 0 -3 -3 -15 vhcurveto
          -18 -25 -33 -11 -30 hhcurveto
          -42 -40 16 39 -57 hvcurveto
          -29 -89 rlineto
          -16 41 52 -10 43 hhcurveto
          111 88 77 97 hvcurveto
          -129 153 rmoveto
          -87 50 -30 32 42 vvcurveto
          15 3 16 7 16 vhcurveto
          111 -65 49 -13 -74 vvcurveto
          -18 -3 -11 -7 -16 vhcurveto
          endchar
        </CharString>
        <CharString name="semicolon">
          -227 -133 -21 560 -80 callsubr
          282 vmoveto
          -87 callsubr
        </CharString>
        <CharString name="seven">
          -104 -21 589 83 hstem
          66 448 rmoveto
          121 16 rlineto
          165 hlineto
          -159 -379 -94 -175 80 -35 276 641 -5 31 rlineto
          -374 hlineto
          endchar
        </CharString>
        <CharString name="six">
          -15 65 270 58 279 -20 hstem
          52 90 233 90 vstem
          265 -15 rmoveto
          115 85 93 126 101 -70 73 -96 hvcurveto
          -107 -27 5 -36 rlineto
          3 21 17 2 15 hhcurveto
          85 40 -42 -90 -49 -10 -47 -14 -20 hvcurveto
          -14 -23 -30 -8 -28 hhcurveto
          -90 -38 65 156 212 81 94 199 21 hvcurveto
          -4 59 rlineto
          -237 -17 -129 -141 -244 vvcurveto
          -171 78 -99 135 vhcurveto
          endchar
        </CharString>
        <CharString name="slash">
          93 callsubr
          112 -40 rmoveto
          187 700 rlineto
          -72 hlineto
          -187 -700 rlineto
          endchar
        </CharString>
        <CharString name="space">
          -243 endchar
        </CharString>
        <CharString name="sterling">
          0 65 -50 -21 265 61 227 -20 hstemhm
          165 76 -52 77 hintmask 10110100
          100 259 rmoveto
          78 hlineto
          11 -70 0 -4 -18 vvcurveto
          -43 -25 -34 -52 -25 vhcurveto
          hintmask 01110100
          -71 vlineto
          hintmask 10110100
          102 6 rlineto
          117 hlineto
          hintmask 01110100
          102 -6 9 82 rlineto
          hintmask 10110100
          -102 -11 rlineto
          -153 hlineto
          55 39 24 38 47 vvcurveto
          17 -2 16 -6 37 vhcurveto
          103 hlineto
          8 70 -89 -9 rlineto
          -34 hlineto
          hintmask 10111000
          -3 24 -2 20 21 vvcurveto
          71 21 27 62 8 vhcurveto
          80 -31 23 73 rlineto
          9 -28 -25 5 -26 hhcurveto
          -113 -70 -68 -110 -17 1 -16 2 -16 hvcurveto
          -59 hlineto
          endchar
        </CharString>
        <CharString name="summation">
          -15 -74 72 551 71 hstem
          70 -74 rmoveto
          348 72 -288 hlineto
          207 287 -195 264 rlineto
          270 hlineto
          6 71 rlineto
          -413 hlineto
          241 -335 -214 -304 rlineto
          endchar
        </CharString>
        <CharString name="t">
          -105 -15 64 347 58 114 -20 hstem
          114 80 vstem
          28 386 rmoveto
          86 hlineto
          -4 -162 -2 -92 -14 vvcurveto
          -97 32 -36 86 27 30 6 11 22 vhcurveto
          9 57 rlineto
          -7 -25 -24 -3 -22 hhcurveto
          -37 -12 23 71 hvcurveto
          249 vlineto
          126 9 3 53 rlineto
          -126 hlineto
          -6 114 rlineto
          -43 hlineto
          -33 -114 -90 -29 rlineto
          endchar
        </CharString>
        <CharString name="thorn">
          39 74 callsubr
          61 339 69 226 -20 hstem
          78 89 183 92 vstem
          78 4 callsubr
          -43 -45 -17 -30 -40 hvcurveto
          75 6 callsubr
          -111 -10 13 -103 rlineto
          84 -510 -13 callsubr
        </CharString>
        <CharString name="three">
          -126 58 291 37 222 65 hstemhm
          312 88 -76 76 -76 92 hintmask 11100100
          71 -126 rmoveto
          200 3 145 95 126 vvcurveto
          90 -63 65 -96 7 vhcurveto
          hintmask 11110000
          93 32 50 57 71 vvcurveto
          79 -68 48 -113 -55 -57 -11 -20 -43 vhcurveto
          28 -77 112 43 rlineto
          74 34 -25 -55 -65 -59 -41 -115 -17 hvcurveto
          5 -56 rlineto
          hintmask 11101000
          132 -7 49 -31 -79 vvcurveto
          -99 -94 -64 -163 -11 vhcurveto
          endchar
        </CharString>
        <CharString name="threequarters">
          90 callsubr
          99 53 122 42 93 57 21 -20 hstemhm
          283 82 271 68 hintmask 1011111110000000
          344 29 callsubr
          hintmask 1101111110000000
          -9 -85 rlineto
          77 hlineto
          hintmask 1011111110000000
          47 callsubr
          -382 114 -51 callsubr
          438 -152 85 callsubr
        </CharString>
        <CharString name="threesuperior">
          -53 180 53 122 42 93 57 hstem
          247 82 vstem
          71 186 -51 callsubr
          endchar
        </CharString>
        <CharString name="tilde">
          -23 544 -21 124 -20 hstem
          339 642 -93 callsubr
        </CharString>
        <CharString name="trademark">
          315 277 -21 302 46 7 -20 hstemhm
          133 57 164 46 232 58 hintmask 11011100
          634 256 rmoveto
          74 hlineto
          -14 114 -7 120 4 116 -77 -3 -6 -26 -85 -204 -99 194 -10 37 -60 -2 4 -111 -7 -120 -14 -115 rlineto
          65 hlineto
          -4 114 5 116 97 -191 40 2 89 204 7 -130 rlineto
          -510 -115 rmoveto
          71 hlineto
          -7 114 rlineto
          116 vlineto
          4 74 rlineto
          37 hlineto
          64 -4 rlineto
          hintmask 10111100
          6 55 rlineto
          hintmask 11011100
          -63 -7 rlineto
          -205 hlineto
          -3 -48 63 4 rlineto
          35 hlineto
          5 -73 rlineto
          -116 vlineto
          endchar
        </CharString>
        <CharString name="two">
          0 70 412 65 hstem
          322 94 vstem
          79 hmoveto
          364 hlineto
          8 86 -121 -16 rlineto
          -162 hlineto
          121 108 47 46 33 45 rrcurveto
          31 43 16 43 45 vvcurveto
          92 -63 55 -103 -60 -60 -13 -22 -45 vhcurveto
          22 -59 rlineto
          20 43 40 9 38 hhcurveto
          59 35 -34 -57 -32 -10 -31 -21 -34 hvcurveto
          -34 -55 -67 -77 -122 -125 rrcurveto
          endchar
        </CharString>
        <CharString name="twosuperior">
          -53 191 58 241 57 hstem
          248 77 vstem
          61 191 20 callsubr
          -16 callsubr
          endchar
        </CharString>
        <CharString name="u">
          49 -15 69 388 -95 callsubr
          endchar
        </CharString>
        <CharString name="uacute">
          49 -15 69 615 -95 callsubr
          121 65 -86 callsubr
        </CharString>
        <CharString name="ucircumflex">
          49 -15 69 610 -95 callsubr
          61 65 -89 callsubr
        </CharString>
        <CharString name="udieresis">
          49 -15 69 593 -95 callsubr
          207 149 -105 callsubr
        </CharString>
        <CharString name="ugrave">
          49 -15 69 615 -95 callsubr
          245 97 -76 callsubr
        </CharString>
        <CharString name="underscore">
          -73 -95 69 hstem
          15 -95 rmoveto
          350 69 -350 hlineto
          endchar
        </CharString>
        <CharString name="v">
          -3 77 callsubr
          174 -5 rmoveto
          78 6 178 438 59 callsubr
          -95 -254 -82 269 rlineto
          hintmask 10100000
          78 callsubr
        </CharString>
        <CharString name="w">
          229 77 callsubr
          171 -5 rmoveto
          80 6 87 238 75 -244 75 6 174 438 59 callsubr
          -89 -250 -68 265 rlineto
          hintmask 10100000
          -10 91 -103 -6 31 -101 -89 -261 -81 277 78 callsubr
        </CharString>
        <CharString name="x">
          -32 16 -21 26 -21 439 -20 27 -20 hstemhm
          hintmask 10100000
          261 80 rmoveto
          39 -85 rlineto
          hintmask 01100000
          116 5 rlineto
          10 vlineto
          -73 90 -89 138 147 194 rlineto
          7 -111 vlineto
          -27 -80 -44 -66 -41 64 rlineto
          hintmask 01010000
          -41 89 -115 -5 rlineto
          -10 vlineto
          73 -90 74 -118 -154 -216 rlineto
          -7 111 vlineto
          27 80 51 88 rlineto
          endchar
        </CharString>
        <CharString name="y">
          68 callsubr
          27 -20 hstemhm
          hintmask 11000000
          -57 callsubr
          rlineto
          hintmask 10100000
          -12 94 rlineto
          hintmask 11000000
          21 callsubr
          endchar
        </CharString>
        <CharString name="yacute">
          68 callsubr
          250 -43 callsubr
          74 604 -86 callsubr
        </CharString>
        <CharString name="ydieresis">
          68 callsubr
          228 -43 callsubr
          138 688 -105 callsubr
        </CharString>
        <CharString name="yen">
          0 179 -47 47 55 48 272 -20 hstemhm
          217 92 hintmask 10111000
          67 234 rmoveto
          149 hlineto
          9 -15 rlineto
          -40 -158 vlineto
          hintmask 01111000
          -47 155 vlineto
          hintmask 10111000
          -9 -132 rlineto
          101 hlineto
          hintmask 01111000
          -9 132 rlineto
          153 47 -156 55 156 48 -130 hlineto
          152 265 rlineto
          -108 hlineto
          -22 -89 -83 -159 -90 166 -21 89 -120 -8 152 -264 rlineto
          -121 hlineto
          endchar
        </CharString>
        <CharString name="z">
          95 callsubr
          6 -20 hstemhm
          hintmask 01100000
          73 callsubr
          hintmask 10010000
          41 callsubr
          rlineto
          hintmask 01100000
          80 callsubr
          endchar
        </CharString>
        <CharString name="zcaron">
          95 callsubr
          227 -20 hstemhm
          hintmask 01110000
          73 callsubr
          hintmask 10110000
          41 callsubr
          80 callsubr
          hintmask 01110000
          41 606 -58 callsubr
          endchar
        </CharString>
        <CharString name="zero">
          -15 66 430 66 hstem
          34 83 282 83 vstem
          34 261 rmoveto
          -153 73 -123 147 153 75 126 159 154 -73 123 -148 -153 -74 -127 -159 vhcurveto
          83 1 rmoveto
          124 46 95 97 96 43 -91 -121 -124 -46 -94 -98 -95 -43 92 119 vhcurveto
          endchar
        </CharString>
</ttFont>
